<?xml version="1.0" encoding="utf-8"?>
<!-- Generator: Adobe Illustrator 23.0.1, SVG Export Plug-In . SVG Version: 6.00 Build 0)  -->
<svg version="1.1" id="svg8" xmlns="http://www.w3.org/2000/svg" xmlns:xlink="http://www.w3.org/1999/xlink" x="0px" y="0px"
	 width="1308.2px" height="250px" viewBox="0 0 1308.2 250" enable-background="new 0 0 1308.2 250" xml:space="preserve">
<g>
	<path fill="#172935" d="M1291.6,0h-257.2c-9.2,0-16.7,7.5-16.7,16.6v216.7c0,9.2,7.5,16.6,16.7,16.6h257.2
		c9.2,0,16.7-7.4,16.7-16.6V16.6C1308.2,7.5,1300.8,0,1291.6,0 M1291.6,5c6.4,0,11.7,5.2,11.7,11.6v216.7c0,6.4-5.2,11.6-11.7,11.6
		h-257.2c-6.4,0-11.7-5.2-11.7-11.6V16.6c0-6.4,5.2-11.6,11.7-11.6H1291.6"/>
	<path fill="#FFFFFF" d="M1291.6,5c6.4,0,11.7,5.2,11.7,11.6v216.7c0,6.4-5.2,11.6-11.7,11.6h-257.2c-6.4,0-11.7-5.2-11.7-11.6V16.6
		c0-6.4,5.2-11.6,11.7-11.6H1291.6"/>
	<path fill="#172935" d="M1181.7,125.9l-0.5-2.2h-26.8V96l-1.9-0.6c-1.5-0.4-3.9-0.7-6-0.7c-7.8,0-8.9,4.7-8.9,7.4v21.5h-20.7
		c-4.7,0-7.5,3.2-7.5,8.3c0,2.1,0.3,4,0.7,5.6l0.5,2.2h26.9v27.9l2,0.6c1.4,0.4,4,0.7,6.1,0.7c5.8,0,8.8-2.5,8.8-7.4v-21.7h20.5
		c4.7,0,7.5-3.1,7.5-8.4C1182.3,129.4,1182,127.6,1181.7,125.9"/>
	<path fill="#172935" d="M1233,77.9v91.6c0,4.1-2.1,6.3-8.6,6.3c-2.8,0-5.9-0.4-7.5-0.9V95.2l-18.3,5.7c-8.6,2.7-12.2-2.7-10.6-12.4
		l30.3-10C1225.1,76.3,1229.1,76.5,1233,77.9"/>
</g>
<g>
	<path fill="#FFEC00" d="M414.1,0c-9.2,0-16.6,7.5-16.6,16.7v216.6c0,9.2,7.4,16.7,16.6,16.7h624.2c9.2,0,16.6-7.5,16.6-16.7V16.7
		c0-9.2-7.4-16.7-16.6-16.7H414.1z"/>
	<g id="g827">
		<path id="path432" fill="#172935" d="M640.5,76.7c0,7.7-3.4,9.5-10.6,9.5c-13.5,0-32.1,4.3-41.4,25.6v66.8c0,5-2.5,7.7-10.6,7.7
			c-3.1,0-6.2-0.3-9.3-0.9V68.4c3.1-0.6,6.2-0.9,9.3-0.9c8.1,0,10.6,3,10.6,7.7v14c11-15.8,29.3-23.9,51.1-20.5
			C640.3,71.3,640.6,74,640.5,76.7"/>
		<path fill="#172935" d="M655,39.9c0-7.1,5.7-12.8,12.8-12.9c0.1,0,0.2,0,0.3,0c6.9-0.1,12.7,5.4,12.8,12.3c0,0.2,0,0.4,0,0.5
			c-0.1,7.2-5.9,12.9-13,12.9C660.7,52.7,655,47,655,39.9 M657.7,185.1V74.5c0-4.7,2.6-7.7,10.7-7.7c3.1,0,6.2,0.3,9.3,0.9v110.4
			c0,5-2.6,7.7-10.7,7.7C663.9,185.9,660.8,185.7,657.7,185.1"/>
		<path id="path426" fill="#172935" d="M443.9,125.8c0-35.2,26.8-61.3,61.5-61.3c13.5,0,26.9,3.1,39.2,8.9
			c1.2,11.2-2.8,15.1-8.1,15.1c-6.3,0-14.4-6.2-31.1-6.2c-21.6,0-40.5,16.7-40.5,43.8s18.8,43.9,40.5,43.9c16.5,0,24.7-6.2,31.1-6.2
			c5.3,0,9.3,3.8,8.1,15.1c-12.2,6-25.6,9.1-39.2,9.2C470.7,187.6,443.9,161,443.9,125.8"/>
		<path id="path424" fill="#172935" d="M953.9,65.6c-32.8,0-57.8,25.3-57.8,60c0,36.5,25.2,61.6,61.1,61.6c14.8-0.2,29.5-3.6,43-9.8
			c1.2-10.3-2.5-15.4-7.7-15.4c-1.8,0-4.6,0.7-9.4,2.5c-7.4,2.5-15.3,5-25,5c-23.1,0-38.4-13.2-41.7-35.2h90.1
			c0.6-4.1,0.9-8.3,0.9-12.4C1007.6,93.8,989.8,65.6,953.9,65.6L953.9,65.6z M953.9,83.1c20.5,0,33.3,15.4,34,35.2h-71.5
			C919.3,95.2,935.5,83.1,953.9,83.1z"/>
		<path id="path6115" fill="#172935" d="M709.7,185.1V68.6c3.1-0.6,6.2-0.9,9.3-0.9c7.8,0,10.2,3,10.2,8.1v6.8
			c7.8-9.8,18.7-16.3,32.8-16.3c15.5,0,27.4,7.2,34,20.1c7.2-9.9,19.1-20.1,36.4-20.1c26.3,0,39.3,18.8,39.3,42.4v69.8
			c0,5-2.5,7.7-10.6,7.7c-3.1,0-6.2-0.3-9.3-0.9v-74.2c0-17.1-8.1-27.1-23.4-27.1c-12.8,0-23.6,9-28.1,18.3v76.3
			c0,5-2.5,7.7-10.6,7.7c-3.1,0-6.2-0.3-9.3-0.9v-74.2c0-17.1-9.4-27.1-23.4-27.1c-12.8,0-23.8,9-28.1,18.3v76.3
			c0,5-2.5,7.7-10.6,7.7C715.6,185.9,711.8,185.5,709.7,185.1"/>
	</g>
	
		<linearGradient id="SVGID_1_" gradientUnits="userSpaceOnUse" x1="727.889" y1="64.6756" x2="723.1348" y2="200.8183" gradientTransform="matrix(1 0 0 -1 0 190.0344)">
		<stop  offset="0" style="stop-color:#FFFFFF"/>
		<stop  offset="1" style="stop-color:#FFFFFF;stop-opacity:0"/>
	</linearGradient>
	<path opacity="0.35" fill="url(#SVGID_1_)" d="M414.1,0c-9.2,0-16.6,7.5-16.6,16.7v120.2c0-1.8,0.8-11.8,11.9-12.8
		c0.5-0.1,1.1-0.1,1.6-0.1c49-1.8,631.6-22.3,631.6-22.3c6.9-0.1,12.4-5.8,12.3-12.7V16.7c0-9.2-7.4-16.7-16.6-16.7H414.1z"/>
	<path fill="#172935" d="M248.6,232c5.2,2.3,10.8,3.5,16.5,3.6c13,0.2,20.1-4.7,25.3-16.4l69.7-155.9c-4.5-2-9.5-3.2-14.4-3.4
		c-9-0.2-21,1.6-28.7,20.1l-22.6,53.4l-44.2-72.3c-4.9-1.3-9.9-2-14.9-2.1c-15.7,0-24.4,5.8-33.5,15.6l-43,47.2l34.6,54.7
		c6.4,9.9,14.8,15.1,28.5,15.1c6.8,0.1,13.6-1.2,19.9-3.8l-41.7-63l29.6-31.4l48.5,76.3L248.6,232z M157.2,173.1
		c0,11.5-4.5,18.1-26.9,18.1c-2.7,0-5.4-0.2-8.1-0.6V38.1c0-11.6,3.9-23.7,26.5-23.7c2.8,0,5.6,0.3,8.4,0.9L157.2,173.1L157.2,173.1
		z M111,150c0,21.5-14,37.1-42.4,40.2c-20.5,2.2-50.4-0.4-64.4-2c-0.5-2.5-0.8-5-0.9-7.5c0-18.7,10.1-23,19.5-23
		c9.9,0,25.3,1.8,36.8,1.8c12.7,0,16.5-4.3,16.5-8.4c0-5.4-5.1-7.6-14.9-9.5l-27-5.2C11.9,132,0,116.4,0,99.9
		C0,79.8,14.1,63.1,42,60c21-2.3,46.7,0.3,60.7,2c0.5,2.4,0.8,4.8,0.8,7.2c0,18.7-9.9,22.8-19.3,22.8c-7.3,0-18.5-1.3-31.5-1.3
		c-13.1,0-18.5,3.6-18.5,8.1c0,4.7,5.2,6.6,13.3,8.1l25.8,4.8C99.7,116.4,111,131.5,111,150"/>
	
		<linearGradient id="SVGID_2_" gradientUnits="userSpaceOnUse" x1="183.6978" y1="39.4636" x2="176.4819" y2="177.1502" gradientTransform="matrix(1 0 0 -1 0 190.0344)">
		<stop  offset="0" style="stop-color:#FFFFFF"/>
		<stop  offset="1" style="stop-color:#FFFFFF;stop-opacity:0"/>
	</linearGradient>
	<path opacity="0.35" fill="url(#SVGID_2_)" d="M207.9,136.3L207.9,136.3 M344.7,59.9c-8.9,0-20.2,2.4-27.6,20.1l-22,52.1v0.1
		c0.9-2.4,3.1-4.1,5.7-4.3c0,0,21.6-0.8,23.3-0.8c4.5,0,8.7-2.6,10.7-6.7l25.5-57.1c-4.5-2-9.5-3.2-14.4-3.4L344.7,59.9 M42,60.1
		C14.1,63.1,0,79.9,0,100c0.1,10.7,5.1,20.7,13.5,27.2c6.8,4.5,13.7,6.2,20.6,7.4c9.5,1.3,19.2,1.8,28.8,1.5
		c3.1-0.1,25.8-0.9,30.7-1.1c11.5-0.4,17.7,9.4,17.1,19.4c0-0.1,0-0.3,0.1-0.4v-0.1c0.1-1.3,0.2-2.6,0.2-3.9
		c0-18.5-11.3-33.6-37.7-38.4l-25.7-4.8c-8.2-1.4-13.3-3.4-13.3-8.1c0-4.4,5.4-8.1,18.5-8.1c12.9,0,24.2,1.3,31.5,1.3
		c9.5,0,19.3-4,19.3-22.8c0-2.4-0.3-4.8-0.8-7.2c-14-1.8-28.1-2.7-42.2-2.9C54.3,59.2,47.9,59.4,42,60.1 M201.9,74.6l-43,47.2
		l3.4,5.4c2.2,3.4,6.1,5.4,10.2,5.1c2.1-0.1,22.8-0.8,24.5-0.9c4.2-0.3,8.3,1.5,10.9,4.8l-7.7-11.6l29.6-31.4l19.8,31.2
		c2.5,3.1,6.2,4.8,10.2,4.8c1.1-0.1,27.1-0.9,28.2-1c2.3,0,4.3,1.3,5.5,3.2l-43-70.4c-4.9-1.3-9.9-2-14.9-2.1
		C219.7,58.9,211,64.7,201.9,74.6 M122.3,38.1v104.5c0-4.8,3.8-8.7,8.6-8.8c3.8-0.1,14.3-0.5,17.5-0.6c4.9,0,8.8-3.9,8.9-8.8
		c0,0,0-0.1,0-0.1v-109c-2.7-0.6-5.6-0.9-8.4-0.9C126.1,14.4,122.3,26.5,122.3,38.1"/>
</g>
</svg>
