<?xml version="1.0" encoding="UTF-8" standalone="no"?>
<!-- Generator: Adobe Illustrator 23.0.1, SVG Export Plug-In . SVG Version: 6.00 Build 0)  -->

<svg
   version="1.1"
   id="Livello_1"
   xml:space="preserve"
   viewBox="0 0 3152.3789 999.9945"
   xmlns="http://www.w3.org/2000/svg"
   xmlns:svg="http://www.w3.org/2000/svg"><defs
   id="defs909"><linearGradient
     id="Sky_Logo_2_-7"
     gradientUnits="userSpaceOnUse"
     x1="361.97241"
     y1="275.19421"
     x2="361.97241"
     y2="-167.3197"
     gradientTransform="matrix(1.0016877,0,0,-1,0,304)"><stop
       offset="0"
       style="stop-color:#002A91"
       id="stop846-1" /><stop
       offset="0.8"
       style="stop-color:#002672"
       id="stop848-8" /></linearGradient><linearGradient
     id="s25_2_-4"
     gradientUnits="userSpaceOnUse"
     x1="365.5015"
     y1="40.698799"
     x2="359.65079"
     y2="208.2287"
     gradientTransform="matrix(1.0016877,0,0,-1,0,304)"><stop
       offset="0"
       style="stop-color:#FFFFFF"
       id="stop852-9" /><stop
       offset="0.1203"
       style="stop-color:#FFFFFF;stop-opacity:0.8347"
       id="stop854-7" /><stop
       offset="0.2693"
       style="stop-color:#FFFFFF;stop-opacity:0.6576"
       id="stop856-3" /><stop
       offset="0.4195"
       style="stop-color:#FFFFFF;stop-opacity:0.5107"
       id="stop858-1" /><stop
       offset="0.5684"
       style="stop-color:#FFFFFF;stop-opacity:0.3965"
       id="stop860-0" /><stop
       offset="0.7156"
       style="stop-color:#FFFFFF;stop-opacity:0.3152"
       id="stop862-2" /><stop
       offset="0.8603"
       style="stop-color:#FFFFFF;stop-opacity:0.2664"
       id="stop864-3" /><stop
       offset="1"
       style="stop-color:#FFFFFF;stop-opacity:0.25"
       id="stop866-7" /></linearGradient><linearGradient
     id="Plinth_1_-1"
     gradientUnits="userSpaceOnUse"
     x1="1832.0896"
     y1="22.230801"
     x2="1832.0896"
     y2="41.461498"
     gradientTransform="matrix(79.787815,0,0,26,-144610.85,-578)"><stop
       offset="0.4"
       style="stop-color:#FF0000"
       id="stop870-8" /><stop
       offset="1"
       style="stop-color:#D42321"
       id="stop872-9" /></linearGradient><linearGradient
     id="p40_2_-3"
     gradientUnits="userSpaceOnUse"
     x1="1568.9945"
     y1="74.039398"
     x2="1560.2958"
     y2="323.14291"
     gradientTransform="matrix(0.99986865,0,0,-1,1.4533899,304)"><stop
       offset="0"
       style="stop-color:#FFFFFF"
       id="stop876-7" /><stop
       offset="0.1203"
       style="stop-color:#FFFFFF;stop-opacity:0.8347"
       id="stop878-4" /><stop
       offset="0.2693"
       style="stop-color:#FFFFFF;stop-opacity:0.6576"
       id="stop880-8" /><stop
       offset="0.4195"
       style="stop-color:#FFFFFF;stop-opacity:0.5107"
       id="stop882-0" /><stop
       offset="0.5684"
       style="stop-color:#FFFFFF;stop-opacity:0.3965"
       id="stop884-4" /><stop
       offset="0.7156"
       style="stop-color:#FFFFFF;stop-opacity:0.3152"
       id="stop886-0" /><stop
       offset="0.8603"
       style="stop-color:#FFFFFF;stop-opacity:0.2664"
       id="stop888-5" /><stop
       offset="1"
       style="stop-color:#FFFFFF;stop-opacity:0.25"
       id="stop890-7" /></linearGradient></defs>
<path
   id="Sky_Logo_1_"
   fill="url(#Sky_Logo_2_)"
   d="M 500.54334,464.2 C 511.06106,468.8 522.38014,471.3 533.79938,471.3 559.94342,471.9 574.26756,461.9 584.78528,438.5 L 725.12173,126.5 C 716.00637,122.4 706.08966,120.1 696.07278,119.8 677.94224,119.4 653.70139,123.1 638.37557,159.9 L 592.99912,266.8 503.84891,122.2 C 494.03237,119.6 483.91533,118.2 473.79828,118 442.24512,118 424.71558,129.5 406.48487,149.3 L 319.83888,243.7 389.45618,353.1 C 402.37795,373 419.30647,383.2 446.85288,383.2 460.576,383.4 474.19896,380.9 486.92039,375.7 L 402.97896,249.7 462.47921,186.8 560.04359,339.5 Z M 316.53331,346.3 C 316.53331,369.3 307.51812,382.5 262.44218,382.5 257.03306,382.5 251.62395,382.1 246.31501,381.4 V 76.2 C 246.31501,53 254.22834,28.8 299.60479,28.8 305.31441,28.8 311.02403,29.4 316.53331,30.5 Z M 223.47653,300.2 C 223.47653,343.2 195.3291,374.4 138.2329,380.6 96.863201,385 36.962276,379.8 8.5143455,376.6 7.5126577,371.7 6.9116451,366.7 6.8114764,361.6 6.8114764,324.2 27.045568,315.6 46.077634,315.6 65.911051,315.6 97.063538,319.1 120.20252,319.1 145.74556,319.1 153.45856,310.5 153.45856,302.2 153.45856,291.5 143.24134,287 123.40792,283.2 L 69.116451,272.8 C 24.040505,264.2 0,233 0,200 0,159.9 28.447931,126.4 84.442273,120.2 126.81366,115.6 178.40058,120.8 206.64817,124.2 207.64986,128.9 208.1507,133.7 208.1507,138.6 208.1507,176 188.31729,184.1 169.28522,184.1 154.66058,184.1 131.92227,181.4 105.97856,181.4 79.634172,181.4 68.615607,188.7 68.615607,197.5 68.615607,206.9 79.03316,210.7 95.561007,213.6 L 147.34826,223.2 C 200.53788,232.9 223.47653,263.2 223.47653,300.2 Z"
   style="fill:url(#Sky_Logo_2_-7);stroke-width:1.00084" /><path
   id="s25_1_"
   opacity="0.25"
   fill="url(#s25_2_)"
   enable-background="new    "
   d="M 725.22189,126.5 673.83532,240.7 C 669.82856,248.9 661.51456,254.1 652.3992,254.1 L 605.52021,255.7 C 600.41161,256 595.90401,259.4 594.10097,264.2 V 264.1 L 638.37557,159.9 C 653.80156,123.1 678.0424,119.4 696.07278,119.8 706.18983,120.1 716.00637,122.4 725.22189,126.5 Z M 590.59507,263.1 503.84891,122.2 C 494.03237,119.6 483.91533,118.2 473.79828,118 442.24512,118 424.71558,129.5 406.48487,149.3 L 319.83888,243.7 326.75053,254.6 C 331.25812,261.4 339.07129,265.3 347.28513,264.9 351.39205,264.8 393.26259,263.3 396.66833,263.2 405.18267,262.5 413.39651,266.2 418.50512,273 V 273 L 402.97896,249.7 462.47921,186.8 502.44655,249.3 V 249.3 C 507.35482,255.5 514.96765,259 522.88098,258.8 524.98452,258.7 577.27262,256.9 579.67667,256.8 584.0841,256.9 588.29119,259.3 590.59507,263.1 Z M 299.60479,28.9 C 254.22834,28.9 246.31501,53.1 246.31501,76.3 V 285.3 C 246.31501,275.7 254.028,267.9 263.6442,267.6 L 298.80344,266.4 C 308.61998,266.4 316.63348,258.4 316.63348,248.6 V 248.6 30.6 C 310.92386,29.4 305.31441,28.8 299.60479,28.9 Z M 147.44843,223.1 95.661175,213.5 C 79.133328,210.6 68.715776,206.8 68.715776,197.4 68.715776,188.6 79.734341,181.3 106.07873,181.3 132.02244,181.3 154.76075,184 169.38539,184 188.41746,184 208.25087,175.9 208.25087,138.5 208.25087,133.7 207.75003,128.8 206.74834,124.1 178.50075,120.6 126.91383,115.5 84.542442,120.1 28.447931,126.3 0,159.9 0,199.9 0.10016877,221.3 10.217215,241.5 27.346074,254.4 39.967339,262.2 54.191305,267.3 68.916114,269.2 88.148518,271.8 107.48109,272.8 126.81366,272.2 132.92396,272 178.60092,270.4 188.61779,270 211.75678,269.2 224.37804,288.9 223.07585,308.7 223.07585,308.4 223.07585,308.2 223.17602,307.9 V 307.7 C 223.37636,305.1 223.47653,302.5 223.47653,299.9 223.47653,263.2 200.53788,232.9 147.44843,223.1 Z"
   style="fill:url(#s25_2_-4);stroke-width:1.00084" /><path
   fill="#ffffff"
   d="M 3119.0959,499.99887 H 2298.1542 C 2279.759,500.04787 2264.8207,485.14923 2264.8208,466.75397 V 33.51125 C 2264.7228,15.03271 2279.6754,7.8e-4 2298.1542,0.00108 H 3118.8307 C 3137.3437,-0.1463 3152.3796,14.82083 3152.379,33.33441 V 466.57713 C 3152.3791,484.9724 3137.4911,499.87101 3119.0959,499.82204"
   id="path1213"
   style="display:inline;stroke-width:0.999999" /><path
   fill="#002a91"
   d="M 3119.229,9.8113583 C 3132.0195,9.8113583 3142.411,20.439703 3142.411,33.24826 V 467.25159 C 3142.411,480.06015 3132.0195,490.41641 3119.229,490.41641 H 2298.1975 C 2285.1353,490.41641 2274.7942,480.06015 2274.7942,467.25159 V 33.24826 C 2274.7942,20.439703 2285.1353,9.8113583 2298.1975,9.8113583 H 3119.229 M 3119.229,0 H 2298.1975 C 2279.6931,0 2264.7256,14.98879 2264.7256,33.24826 V 466.75175 C 2264.7256,485.01123 2279.6931,500.00001 2298.1975,500.00001 H 3119.229 C 3137.4618,500.00001 3152.379,485.01123 3152.379,466.75175 V 33.24826 C 3152.379,14.98879 3137.4618,0 3119.229,0"
   id="path1395"
   style="display:inline;stroke-width:1" /><path
   fill="#002a91"
   d="M 3038.1362,251.45889 C 3038.1362,306.80814 2999.4979,348.71796 2938.8436,348.71796 H 2882.3449 C 2870.1433,348.71796 2865.834,343.85501 2865.834,336.07428 V 167.19718 C 2865.834,159.50487 2870.1433,154.5535 2882.3449,154.5535 H 2938.8436 C 2999.4979,154.5535 3038.1362,196.10965 3038.1362,251.81256 M 3006.3406,251.41183 C 3006.3406,209.85569 2979.9576,182.86571 2938.8436,182.86571 H 2897.5527 V 320.24758 H 2939.0204 C 2980.1345,320.24758 3006.5175,293.32164 3006.5175,251.05816"
   id="path840-5" /><path
   fill="#002a91"
   d="M 2821.9559,153.75774 V 338.54997 C 2821.9559,346.68436 2817.8887,351.10523 2805.245,351.10523 2800.1955,351.05285 2795.5625,350.51994 2790.614,349.51371 V 264.45624 H 2684.8206 V 338.54997 C 2684.8206,346.68436 2680.7534,351.10523 2668.1097,351.10523 2663.0548,351.15559 2658.0111,350.62154 2653.0788,349.51371 V 164.80991 C 2653.0788,157.02918 2657.146,152.16623 2670.1433,152.16623 2675.079,152.16174 2680.0005,152.69539 2684.8206,153.75774 V 235.98586 H 2789.96 V 165.252 C 2789.96,157.47127 2794.2812,152.60832 2807.5438,152.60832 2812.4795,152.60383 2817.401,153.13748 2822.2211,154.19983"
   id="path838-8" /><path
   fill="#002a91"
   d="M 2611.4342,153.75774 V 261.1848 C 2611.4342,316.53405 2581.2839,353.13883 2526.8188,353.13883 2472.3537,353.13883 2442.5571,316.53405 2442.5571,261.1848 V 164.80991 C 2442.5571,157.02918 2447.0664,152.16623 2459.6216,152.16623 2464.5573,152.16174 2469.1789,152.69539 2473.999,153.75774 L 2474.2989,264.10257 C 2474.4039,302.74081 2491.9824,324.66844 2526.4651,324.66844 2560.9479,324.66844 2579.715,302.74095 2579.715,264.10257 V 164.80991 C 2579.715,157.02918 2584.0248,152.16623 2596.5801,152.16623 2601.5158,152.16174 2606.4373,152.69539 2611.2574,153.75774"
   id="path836" /><g
   id="g2071"
   style="display:none"><path
     fill="#ffffff"
     d="M 3175.2532,499.99887 H 2298.1542 C 2279.759,500.04787 2264.8207,485.14923 2264.8208,466.75397 V 33.51125 C 2264.7228,15.03271 2279.6754,7.8e-4 2298.1542,0.00108 H 3174.988 C 3193.501,-0.1463 3208.5872,14.82083 3208.5866,33.33441 V 466.57713 C 3208.5867,484.9724 3193.6484,499.87101 3175.2532,499.82204"
     id="path1213-8"
     style="display:inline" /><path
     fill="#002a91"
     d="M 3175.2915,9.79699 C 3188.082,9.79699 3198.4231,20.40977 3198.4231,33.19957 V 466.06821 C 3198.4231,478.85802 3188.082,489.19911 3175.2915,489.19911 H 2298.1975 C 2285.1353,489.19911 2274.7942,478.85802 2274.7942,466.06821 V 33.19957 C 2274.7942,20.40977 2285.1353,9.79699 2298.1975,9.79699 H 3175.2915 M 3175.2915,0 H 2298.1975 C 2279.6931,0 2264.7256,14.96684 2264.7256,33.19957 V 466.06821 C 2264.7256,484.30095 2279.6931,499.26778 2298.1975,499.26778 H 3175.2915 C 3193.5243,499.26778 3208.4918,484.30095 3208.4918,466.06821 V 33.19957 C 3208.4918,14.96684 3193.5243,0 3175.2915,0"
     id="path1395-4"
     style="display:inline" /><path
     fill="#002a91"
     d="M 2649.5546,152.7591 V 259.69814 C 2649.5546,317.61329 2621.5988,353.0909 2564.6375,353.0909 2507.6767,353.0909 2480.0758,317.61329 2480.0758,259.69814 V 163.86398 C 2480.0758,156.04613 2484.6594,151.16002 2497.2594,151.16002 2502.2127,151.15602 2507.6507,151.69171 2512.4879,152.7591 V 260.23968 C 2512.4879,299.06229 2529.6773,323.62887 2564.2826,323.62887 2598.8884,323.62887 2617.1619,299.06229 2617.1619,260.23968 V 163.86398 C 2617.1619,156.04613 2621.8343,151.16002 2634.4343,151.16002 2639.3876,151.15602 2644.5398,151.69171 2649.377,152.7591"
     id="path836-8"
     style="stroke-width:1.00415" /><path
     style="fill:#002a91;fill-opacity:1;stroke-width:1.01648"
     d="M 3084.3433,252.89342 C 3084.3433,309.62661 3045.395,352.58436 2984.2541,352.58436 H 2927.302 C 2915.0025,352.58436 2910.4571,347.59982 2910.4571,339.62454 V 166.52483 C 2910.4571,158.64018 2915.0025,153.56501 2927.302,153.56501 H 2984.2541 C 3045.395,153.56501 3084.3433,196.16022 3084.3433,253.25594"
     id="path840" /><path
     style="fill:#ffffff;stroke-width:1.0041"
     d="M 3051.1373,253.34053 C 3051.1373,210.94272 3024.8619,183.60967 2984.2329,183.60967 H 2943.9293 V 323.70354 H 2981.8719 C 3020.9703,323.70354 3050.1413,297.66035 3051.3122,252.9797"
     id="path31677" /><path
     fill="#002a91"
     d="M 2864.3829,152.77244 V 339.04745 C 2864.3829,347.24711 2859.6829,351.70345 2846.9378,351.70345 2841.8478,351.65065 2836.1749,351.11347 2831.1867,350.09916 V 264.35919 H 2712.0829 2717.3742 L 2715.0855,235.66036 H 2709.7659 2830.8302 V 164.35893 C 2830.8302,156.51577 2835.886,151.6138 2849.255,151.6138 2854.2306,151.6098 2859.7916,152.14721 2864.6503,153.21807"
     id="path838"
     style="stroke-width:1.00802" /><path
     fill="#002a91"
     d="M 2727.4736,152.77244 V 339.04745 C 2727.4736,347.24711 2722.7736,351.70345 2710.0285,351.70345 2704.9385,351.65065 2699.2656,351.11347 2694.2774,350.09916 L 2693.9209,164.35893 C 2693.9209,156.51577 2698.9767,151.6138 2712.3457,151.6138 2717.3213,151.6098 2722.8823,152.14721 2727.741,153.21807"
     id="path31572"
     style="stroke-width:1.00802" /></g><path
   id="Plinth_2_"
   fill="url(#Plinth_1_)"
   d="M 2301.2509,0 H 833.64407 C 815.34646,0 800.34845,15 800.34845,33.3 V 466.7 C 800.34845,485 815.34646,500 833.64407,500 H 2301.6516 C 2319.9488,500 2334.9469,485 2334.9469,466.7 V 33.3 C 2334.547,15 2319.5489,0 2301.2509,0 Z"
   style="fill:url(#Plinth_1_-1)" /><path
   id="p40_1_"
   opacity="0.4"
   fill="url(#p40_2_)"
   enable-background="new    "
   d="M 824.34528,248 C 824.34528,248 825.44516,247.9 827.54485,247.8 926.13192,244.3 2309.9503,196.1 2309.9503,196.1 2323.8482,196 2334.9469,184.6 2334.8467,170.8 V 33.3 C 2334.8467,14.9 2319.9488,0 2301.5514,0 H 833.64407 C 815.24649,0 800.34845,14.9 800.34845,33.3 V 274 C 799.9485,260.4 810.64708,248.7 824.34528,248 Z"
   style="fill:url(#p40_2_-3)" /><path
   fill="#ffffff"
   d="M 895.10168,359.31667 C 892.19747,338.91667 898.4065,328.11667 910.52413,328.11667 921.74045,328.11667 949.38068,340.21667 987.73652,340.21667 1028.1953,340.21667 1043.2172,326.01667 1043.2172,307.31667 1043.2172,294.01667 1037.4087,282.31667 1001.0559,272.31667 L 959.29513,261.11667 C 913.02778,249.01667 895.00155,225.71667 895.00155,197.31667 895.00155,161.91667 922.9422,130.61667 986.33447,130.61667 1014.6757,130.61667 1050.2271,136.81667 1071.8589,145.21667 1075.6643,165.21667 1069.3552,176.01667 1057.2375,176.01667 1046.4219,176.01667 1021.786,165.61667 987.13563,165.61667 949.58098,165.61667 935.86101,178.51667 935.86101,195.21667 935.86101,206.91667 941.26889,217.71667 974.71757,227.31667 L 1017.2795,239.01667 C 1064.8487,252.31667 1084.0766,274.41667 1084.0766,305.71667 1084.0766,342.41667 1055.7353,375.31667 986.83521,375.31667 955.99032,375.51667 918.03506,368.01667 895.10168,359.31667 Z"
   id="path894"
   style="stroke-width:1.00072" /><path
   fill="#ffffff"
   d="M 1368.1043,253.01667 C 1368.1043,330.11667 1313.8652,375.51667 1254.7225,375.51667 1219.297,375.51667 1190.4762,358.81667 1172.9636,335.11667 V 434.21667 C 1172.9636,443.41667 1167.5597,449.61667 1151.7483,449.61667 1143.8426,449.61667 1136.3371,448.81667 1132.5344,447.51667 V 135.01667 C 1136.3371,134.21667 1143.7425,132.91667 1151.7483,132.91667 1167.5597,132.91667 1172.9636,138.71667 1172.9636,148.31667 V 170.81667 C 1190.076,147.01667 1219.1968,130.41667 1254.7225,130.41667 1313.8652,130.41667 1368.1043,176.21667 1368.1043,253.01667 Z M 1327.2748,253.01667 C 1327.2748,201.31667 1293.0502,165.91667 1246.8168,165.91667 1215.5943,165.91667 1186.3732,184.21667 1172.9636,210.51667 V 295.51667 C 1186.2732,322.21667 1215.0939,340.11667 1246.8168,340.11667 1293.0502,340.11667 1327.2748,304.71667 1327.2748,253.01667 Z"
   id="path896"
   style="stroke-width:1.00035" /><path
   fill="#ffffff"
   d="M 1406.662,252.81668 C 1406.662,182.7022 1458.4623,130.517 1527.6962,130.517 1597.4313,130.517 1649.1315,182.7022 1649.1315,252.81668 1649.1315,322.53049 1597.3312,375.517 1527.6962,375.517 1458.4623,375.517 1406.662,322.53049 1406.662,252.81668 Z M 1608.3524,252.81668 C 1608.3524,198.52804 1572.0823,165.57424 1527.7966,165.57424 1483.9115,165.57424 1447.6411,198.52804 1447.6411,252.81668 1447.6411,306.20384 1483.9115,340.45976 1527.7966,340.45976 1571.982,340.05912 1608.3524,306.20384 1608.3524,252.81668 Z"
   id="path898"
   style="stroke-width:1.00178" /><path
   fill="#ffffff"
   d="M 1844.8046,152.51667 C 1844.8046,168.71667 1838.1055,172.11667 1821.0078,172.11667 1787.2121,172.11667 1758.516,187.91667 1741.0182,224.61667 V 357.51667 C 1741.0182,367.51667 1735.6189,372.91667 1719.321,372.91667 1712.6219,372.91667 1704.723,372.11667 1700.5236,370.81667 V 135.01667 C 1704.3231,134.21667 1712.222,132.91667 1719.321,132.91667 1735.5189,132.91667 1741.0182,138.71667 1741.0182,148.31667 V 181.21667 C 1763.9152,146.21667 1798.9106,128.71667 1842.7048,134.51667 1843.2048,137.91667 1844.8046,145.41667 1844.8046,152.51667 Z"
   id="path900"
   style="stroke-width:0.999935" /><path
   fill="#ffffff"
   d="M 2021.3813,359.20594 C 2000.984,369.21278 1977.1871,375.417 1953.4902,375.417 1906.7963,375.417 1878.9,347.89824 1878.9,302.06698 V 99.328672 C 1878.9,88.921574 1884.6993,82.217 1900.5972,82.217 1907.2963,82.217 1915.1953,83.91816 1919.3947,84.718706 V 135.95366 H 2011.0826 C 2011.4826,139.2559 2012.7824,146.36076 2012.7824,152.16472 2012.7824,166.3744 2006.9832,171.37782 1998.1843,171.37782 H 1919.8946 V 299.36512 C 1919.8946,326.8839 1932.7929,340.19298 1958.6896,340.19298 1982.4864,340.19298 1995.3847,329.78588 2006.5833,329.78588 2017.6818,329.98602 2023.881,339.59256 2021.3813,359.20594 Z"
   id="path902"
   style="stroke-width:1.00027" /><path
   fill="#ffffff"
   d="M 2049.2046,359.31667 C 2046.305,338.91667 2052.5042,328.11667 2064.6026,328.11667 2075.9012,328.11667 2103.3975,340.21667 2141.6925,340.21667 2182.0872,340.21667 2197.0852,326.01667 2197.0852,307.31667 2197.0852,294.01667 2191.286,282.31667 2154.9907,272.31667 L 2113.2962,261.11667 C 2067.1022,249.01667 2049.1046,225.71667 2049.1046,197.31667 2049.1046,161.91667 2077.001,130.61667 2140.3926,130.61667 2168.6889,130.61667 2204.0842,136.81667 2225.7814,145.21667 2229.5809,165.21667 2223.2818,176.01667 2211.1834,176.01667 2200.3848,176.01667 2175.7879,165.61667 2141.1926,165.61667 2103.6975,165.61667 2089.9993,178.51667 2089.9993,195.21667 2089.9993,206.91667 2095.3985,217.71667 2128.7942,227.31667 L 2171.2886,239.01667 C 2218.7824,252.31667 2237.9798,274.41667 2237.9798,305.71667 2237.9798,342.41667 2209.6836,375.31667 2140.8926,375.31667 2110.0967,375.51667 2072.1017,368.01667 2049.2046,359.31667 Z"
   id="path904"
   style="stroke-width:0.999935" /><path
   fill="#002a91"
   d="M 890.99085,717.95718 V 837.19143 C 890.99085,845.6139 886.31425,849.87596 872.79295,849.87596 866.89645,849.87596 860.49155,849.06415 857.13655,848.15078 V 722.21914 C 857.13655,693.50148 843.61525,676.55499 817.28405,676.55499 795.22295,676.55499 777.02495,691.7764 769.80685,707.40362 V 837.59733 C 769.80685,846.0198 765.13035,850.28186 751.60885,850.28186 745.71225,850.28186 739.30745,849.47005 735.95255,848.55669 V 722.21914 C 735.95255,693.50148 722.43115,676.55499 696.10005,676.55499 674.03885,676.55499 655.84095,691.7764 648.62275,707.40362 V 837.59733 C 648.62275,846.0198 643.94615,850.28186 630.42485,850.28186 624.52825,850.28186 618.12345,849.47005 614.76845,848.55669 V 649.86675 C 618.12345,649.05494 624.52825,648.14168 630.83145,648.14168 643.53945,648.14168 648.21605,653.21545 648.21605,661.63802 V 675.23572 C 660.92415,658.28922 680.85035,646.0107 704.94485,646.0107 731.17425,646.0107 751.91385,659.10114 762.58855,681.93321 776.10995,661.23212 796.95125,646.0107 826.12895,646.0107 868.52295,646.11225 890.99085,677.7727 890.99085,717.95718 Z"
   id="path828-6"
   style="fill:#002a91" /><path
   id="Shape-8"
   fill="#002a91"
   d="M 1101.9448,721.40732 V 848.65824 C 1098.5898,849.47005 1092.5917,850.38332 1086.6951,850.38332 1074.3937,850.38332 1068.4971,845.71545 1068.4971,837.69878 V 820.34639 C 1050.7059,840.64158 1027.4247,852.5143 998.14525,852.5143 954.12455,852.5143 929.52165,823.79664 929.52165,792.03463 929.52165,744.2394 980.76055,723.1324 1067.9887,729.01808 V 721.81323 C 1067.9887,689.23942 1058.2289,675.74317 1020.5116,675.74317 1004.8552,675.74317 983.70885,680.41104 972.62745,683.35383 965.81585,685.07891 961.24105,686.70253 956.97105,686.70253 947.61795,686.70253 941.31475,678.28006 944.66965,660.92766 965.00265,653.317 994.28195,646.51806 1022.6463,646.51806 1080.2901,646.11215 1101.9448,672.29292 1101.9448,721.40732 Z M 1067.9887,790.71546 V 753.06788 C 1010.8533,748.80582 963.37595,756.41657 963.37595,790.71546 963.37595,808.06786 977.81225,823.69508 1004.0418,823.69508 1030.3729,823.69508 1053.6541,810.60475 1067.9887,790.71546 Z"
   style="fill:#002a91" /><path
   fill="#002a91"
   d="M 1148.9137,605.11587 C 1148.9137,592.83724 1158.6735,583.60296 1170.4666,583.60296 1182.7681,583.60296 1192.5278,592.53289 1192.5278,605.11587 1192.5278,616.07532 1183.1746,626.62877 1170.4666,626.62877 1159.0802,626.22287 1148.9137,616.07532 1148.9137,605.11587 Z M 1153.5904,848.65824 V 660.92766 C 1153.5904,652.9111 1158.2669,648.24313 1171.7882,648.24313 1177.6848,648.24313 1183.683,649.05494 1187.0378,649.9682 V 837.29288 C 1187.0378,845.71545 1182.7681,849.97741 1169.2465,849.97741 1163.35,850.28186 1156.9452,849.47005 1153.5904,848.65824 Z"
   id="path831-3"
   style="fill:#002a91" /><path
   fill="#002a91"
   d="M 1414.5629,730.2357 V 837.19143 C 1414.5629,845.20799 1409.8864,849.87596 1396.365,849.87596 1390.4686,849.87596 1384.0636,849.06415 1380.7087,848.15078 V 734.90367 C 1380.7087,695.1251 1361.1892,676.14908 1332.0115,676.14908 1309.1369,676.14908 1284.5342,691.7764 1274.3676,710.44797 V 837.29288 C 1274.3676,845.30954 1269.6911,849.97741 1256.1697,849.97741 1250.2732,849.97741 1243.8683,849.1656 1240.5134,848.25234 V 649.46085 C 1243.8683,648.64904 1250.2732,647.73577 1256.1697,647.73577 1269.6911,647.73577 1274.3676,652.80955 1274.3676,660.4203 V 677.3668 C 1288.804,659.60849 1310.7636,645.70624 1340.0429,645.70624 1380.6071,646.11215 1414.5629,671.88702 1414.5629,730.2357 Z"
   id="path833-8"
   style="fill:#002a91" /><path
   fill="#002a91"
   d="M 1722.9817,761.49035 H 1568.8512 C 1573.5246,799.94975 1599.7385,821.5641 1639.1606,821.5641 1656.1277,821.5641 1669.2343,818.21541 1681.9349,813.95345 1690.876,811.01065 1694.2283,809.69149 1697.5815,809.69149 1706.9284,809.69149 1713.228,817.70805 1711.6028,835.87226 1693.8225,843.88882 1666.6944,852.31139 1637.9411,852.31139 1576.1668,852.31139 1534.205,810.5032 1534.205,748.70436 1534.205,689.03651 1578.1989,646.4166 1632.4541,646.4166 1693.8225,646.4166 1723.896,693.80583 1723.896,742.00697 1724.2011,747.18219 1723.7943,754.38705 1722.9817,761.49035 Z M 1568.8512,734.90367 H 1690.7744 C 1689.555,701.11214 1667.5072,674.424 1632.3526,674.424 1602.2789,674.82991 1574.3381,695.53101 1568.8512,734.90367 Z"
   id="path835-6"
   style="fill:#002a91" /><path
   fill="#002a91"
   d="M 1819.504,847.33897 1734.8692,653.72281 C 1739.9493,650.78002 1749.2971,648.24313 1757.3237,648.24313 1767.4841,648.24313 1772.564,651.18592 1776.4251,660.11585 L 1810.7663,744.2394 1839.5196,814.4608 H 1839.9263 L 1868.6798,744.2394 1903.0207,660.11585 C 1906.8823,651.18592 1911.4541,648.24313 1921.6147,648.24313 1929.2345,648.24313 1938.0738,650.78002 1943.6624,653.72281 L 1863.5995,836.37962 C 1858.5193,847.33907 1854.2517,850.38332 1840.3321,850.38332 1834.2368,850.28176 1826.6161,849.06415 1819.504,847.33897 Z"
   id="path837-1"
   style="fill:#002a91" /><path
   fill="#002a91"
   d="M 2142.0912,761.49035 H 1988.3673 C 1993.0408,799.94975 2019.2545,821.5641 2058.6759,821.5641 2075.6434,821.5641 2088.7503,818.21541 2101.4502,813.95345 2110.3913,811.01065 2113.7444,809.69149 2117.0968,809.69149 2126.4446,809.69149 2132.7442,817.70805 2131.1179,835.87226 2113.3378,843.88882 2086.2097,852.31139 2057.4565,852.31139 1995.6822,852.31139 1953.7206,810.5032 1953.7206,748.70436 1953.7206,689.03651 1997.7142,646.4166 2051.9702,646.4166 2113.3378,646.4166 2143.4122,693.80583 2143.4122,742.00697 2143.3104,747.18219 2142.9038,754.38705 2142.0912,761.49035 Z M 1988.3673,734.90367 H 2110.2897 C 2109.0702,701.11214 2087.0231,674.424 2051.8686,674.424 2021.3877,674.82991 1993.4475,695.53101 1988.3673,734.90367 Z"
   id="path839-9"
   style="fill:#002a91" /><path
   fill="#002a91"
   d="M 2359.8252,730.2357 V 837.19143 C 2359.8252,845.20799 2355.1508,849.87596 2341.6381,849.87596 2335.7453,849.87596 2329.3438,849.06415 2325.9916,848.15078 V 734.90367 C 2325.9916,695.1251 2306.4836,676.14908 2277.3239,676.14908 2254.4634,676.14908 2229.8754,691.7764 2219.7152,710.44797 V 837.29288 C 2219.7152,845.30954 2215.0416,849.97741 2201.5289,849.97741 2195.6359,849.97741 2189.2348,849.1656 2185.8816,848.25234 V 649.46085 C 2189.2348,648.64904 2195.6359,647.73577 2201.5289,647.73577 2215.0416,647.73577 2219.7152,652.80955 2219.7152,660.4203 V 677.3668 C 2234.143,659.60849 2256.0892,645.70624 2285.3505,645.70624 2325.9916,646.11215 2359.8252,671.88702 2359.8252,730.2357 Z"
   id="path841-6"
   style="fill:#002a91" /><path
   fill="#002a91"
   d="M 2529.8057,838.5106 C 2512.4313,846.93317 2492.5172,852.00694 2472.705,852.00694 2433.2836,852.00694 2410.0165,828.76896 2410.0165,790.30956 V 620.33728 C 2410.0165,611.40735 2415.0965,605.92768 2428.2034,605.92768 2434.0961,605.92768 2440.4969,607.14539 2443.8499,608.05866 V 651.18592 H 2521.2705 C 2521.6774,654.12871 2522.49,660.11585 2522.49,664.68227 2522.49,676.55499 2517.4099,680.71549 2510.1959,680.71549 H 2444.1548 V 788.48293 C 2444.1548,811.72091 2454.7211,822.78182 2476.769,822.78182 2496.6831,822.78182 2507.6562,813.85199 2517.4099,813.85199 2526.8592,813.95355 2531.9391,821.97001 2529.8057,838.5106 Z"
   id="path843-7"
   style="fill:#002a91" /><path
   id="path2239"
   d="M 3152.3691,531.07812 C 3152.3191,540.03799 3148.6878,548.60503 3142.2852,554.875 L 3142.373,966.68359 C 3142.361,979.54952 3131.9322,989.97823 3119.0605,989.99023 H 33.318361 C 20.461763,989.94223 10.051925,979.53552 10.003908,966.68359 V 554.88477 C 3.8613116,548.85789 0.27800189,540.69762 2.4637617e-6,532.09766 V 966.68555 C -0.00700004,985.08345 14.91378,1000.0001 33.318361,999.99414 H 3118.9609 C 3137.4146,1000.0801 3152.4099,985.13245 3152.3789,966.68555 Z"
   style="fill:#002a91;fill-opacity:1" /></svg>
