<?xml version="1.0" encoding="utf-8"?>
<!-- Generator: Adobe Illustrator 23.0.1, SVG Export Plug-In . SVG Version: 6.00 Build 0)  -->
<svg version="1.1" id="Livello_1" xmlns="http://www.w3.org/2000/svg" xmlns:xlink="http://www.w3.org/1999/xlink" x="0px" y="0px"
	 viewBox="0 0 3031.285 500" enable-background="new 0 0 3031.285 500" xml:space="preserve">
<g>
	<g>
		<path fill="#FFFFFF" d="M2997.971,10.026c12.853,0,23.285,10.434,23.285,23.288v433.371c0,12.854-10.432,23.341-23.285,23.341
			h-514.414c-12.853,0-23.344-10.487-23.344-23.341V33.314c0-12.854,10.49-23.288,23.344-23.288H2997.971"/>
		<path fill="#00396E" d="M2997.971,0h-514.414c-18.386,0-33.314,14.926-33.314,33.314v433.371
			c0,18.444,14.928,33.314,33.314,33.314h514.414c18.386,0,33.314-14.87,33.314-33.314V33.314
			C3031.285,14.926,3016.357,0,2997.971,0 M2997.971,10.026c12.853,0,23.285,10.434,23.285,23.288v433.371
			c0,12.854-10.432,23.341-23.285,23.341h-514.414c-12.853,0-23.344-10.487-23.344-23.341V33.314
			c0-12.854,10.49-23.288,23.344-23.288H2997.971"/>
		<path fill="#00396E" d="M2778.157,251.828l-0.865-4.38h-53.66v-55.389l-3.919-1.15c-2.939-0.809-7.838-1.442-11.873-1.442
			c-15.62,0-17.925,9.336-17.925,14.926v43.055h-41.268c-9.337,0-14.87,6.283-14.87,16.717c0,4.148,0.692,7.954,1.326,11.124
			l0.865,4.38h53.948v55.734l3.919,1.154c2.94,0.806,8.011,1.383,12.161,1.383c11.7,0,17.637-5.013,17.637-14.87v-43.4h40.98
			c9.279,0,14.87-6.227,14.87-16.713C2779.482,258.803,2778.791,255.057,2778.157,251.828"/>
		<path fill="#00396E" d="M2880.866,155.825v183.113c0,8.13-4.093,12.626-17.118,12.626c-5.648,0-11.758-0.809-15.043-1.674v-159.48
			l-36.599,11.412c-17.118,5.301-24.438-5.301-21.153-24.843l60.634-19.939C2865.016,152.599,2873.142,153.003,2880.866,155.825"/>
	</g>
	<g>
		
			<linearGradient id="SVGID_1_" gradientUnits="userSpaceOnUse" x1="1204.5369" y1="681.3848" x2="1276.8571" y2="681.3848" gradientTransform="matrix(23.9359 0 0 -23.9359 -28033.0469 16559.582)">
			<stop  offset="0" style="stop-color:#00396E"/>
			<stop  offset="0.2689" style="stop-color:#033D72"/>
			<stop  offset="0.5571" style="stop-color:#0D4A7E"/>
			<stop  offset="0.8534" style="stop-color:#1D6091"/>
			<stop  offset="1" style="stop-color:#276D9D"/>
		</linearGradient>
		<path fill="url(#SVGID_1_)" d="M2529.719,466.821V33.324C2529.671,14.923,2514.722,0,2496.31,0H832.008
			c-18.441,0-33.338,14.97-33.338,33.411v433.324c0,18.368,14.897,33.265,33.338,33.265H2496.31
			C2514.722,500,2529.671,485.15,2529.719,466.821z"/>
		<g>
			<path fill="#FFFFFF" d="M1093.424,219.909v151.143c-3.977,1.012-11.352,1.952-18.223,1.952c-14.681,0-21.551-5.351-21.551-15.186
				v-20.611c-21.116,24.081-48.597,38.255-83.453,38.255c-52.503,0-81.502-34.35-81.502-71.666
				c0-56.914,60.892-81.935,164.45-75.065v-8.389c0-38.763-11.789-54.962-56.48-54.962c-18.587,0-43.68,5.425-56.915,8.823
				c-7.881,2.025-13.74,3.977-18.657,3.977c-11.282,0-18.657-9.835-14.753-30.445c24.082-8.823,58.939-17.212,92.349-17.212
				C1067.896,130.526,1093.424,161.477,1093.424,219.909 M1053.145,302.351v-44.692c-67.762-4.917-124.169,3.978-124.169,44.692
				c0,20.611,17.139,39.269,48.091,39.269C1008.453,341.62,1035.933,325.926,1053.145,302.351"/>
			<path fill="#FFFFFF" d="M1296.173,359.285c-20.61,9.835-44.187,16.2-67.761,16.2c-46.644,0-74.559-27.481-74.559-73.113V99.596
				c0-10.269,5.857-17.139,21.551-17.139c6.87,0,14.753,1.446,18.657,2.459v51.055h91.771c0.505,3.4,1.518,10.269,1.518,16.199
				c0,14.174-5.93,19.092-14.753,19.092h-78.536v128.146c0,27.48,12.8,40.714,38.763,40.714c23.575,0,36.81-10.269,48.162-10.269
				C1292.702,329.853,1298.632,339.616,1296.173,359.285"/>
			<path fill="#FFFFFF" d="M1332.787,371.066V65.744c0-9.329,5.422-15.186,21.621-15.186c6.87,0,14.681,0.94,18.657,1.952v305.322
				c0,9.835-5.422,15.187-21.621,15.187C1344.574,373.019,1336.691,372.079,1332.787,371.066"/>
			<path fill="#FFFFFF" d="M1624.434,219.909v151.143c-3.977,1.012-11.353,1.952-18.223,1.952c-14.681,0-21.551-5.351-21.551-15.186
				v-20.611c-21.116,24.081-48.597,38.255-83.453,38.255c-52.503,0-81.502-34.35-81.502-71.666
				c0-56.914,60.892-81.935,164.45-75.065v-8.389c0-38.763-11.789-54.962-56.48-54.962c-18.587,0-43.68,5.425-56.915,8.823
				c-7.881,2.025-13.74,3.977-18.657,3.977c-11.282,0-18.657-9.835-14.753-30.445c24.082-8.823,58.939-17.212,92.349-17.212
				C1598.906,130.526,1624.434,161.477,1624.434,219.909 M1584.155,302.351v-44.692c-67.762-4.917-124.169,3.978-124.169,44.692
				c0,20.611,17.139,39.269,48.091,39.269C1539.462,341.62,1566.943,325.926,1584.155,302.351"/>
			<path fill="#FFFFFF" d="M1893.405,230.685v127.134c0,9.329-5.425,15.186-21.624,15.186c-6.87,0-14.681-0.94-18.657-1.952V236.11
				c0-47.151-23.069-69.714-57.926-69.714c-26.975,0-56.407,18.657-68.197,40.715v150.709c0,9.329-5.422,15.186-21.621,15.186
				c-6.87,0-14.681-0.94-18.657-1.952V134.938c3.977-0.94,11.787-1.953,18.657-1.953c16.199,0,21.621,5.93,21.621,15.259v20.104
				c17.212-21.116,43.174-37.821,78.031-37.821C1853.124,130.526,1893.405,160.972,1893.405,230.685"/>
			<path fill="#FFFFFF" d="M2095.435,359.285c-20.611,9.835-44.187,16.2-67.762,16.2c-46.644,0-74.559-27.481-74.559-73.113V99.596
				c0-10.269,5.857-17.139,21.551-17.139c6.87,0,14.753,1.446,18.657,2.459v51.055h91.771c0.505,3.4,1.519,10.269,1.519,16.199
				c0,14.174-5.93,19.092-14.753,19.092h-78.536v128.146c0,27.48,12.8,40.714,38.763,40.714c23.575,0,36.809-10.269,48.162-10.269
				C2091.963,329.853,2097.893,339.616,2095.435,359.285"/>
			<path fill="#FFFFFF" d="M2126.683,81.437c0-14.681,11.787-25.528,25.528-25.528c14.753,0,26.033,10.847,26.033,25.528
				c0,13.306-11.28,25.528-26.033,25.528C2138.47,106.965,2126.683,94.743,2126.683,81.437 M2132.107,371.066v-222.88
				c0-9.33,5.422-15.187,21.621-15.187c6.87,0,14.246,1.012,18.152,1.952v222.881c0,9.835-4.917,15.187-21.116,15.187
				C2143.895,373.019,2136.011,372.079,2132.107,371.066"/>
			<path fill="#FFFFFF" d="M2220.601,252.777c0-70.219,51.561-122.215,119.755-122.215c31.892,0,61.397,8.822,82.008,18.657
				c3.399,22.056-3.471,30.88-13.306,30.88c-17.139,0-31.892-14.174-67.184-14.174c-44.185,0-80.56,32.832-80.56,86.852
				c0,53.515,36.375,86.853,80.56,86.853c35.291,0,50.045-14.681,65.738-14.681c10.34,0,17.645,9.33,14.751,31.386
				c-20.611,10.342-50.115,19.164-82.008,19.164C2272.162,375.5,2220.601,322.491,2220.601,252.777"/>
		</g>
		
			<linearGradient id="p30_1_" gradientUnits="userSpaceOnUse" x1="1666.7046" y1="424.5074" x2="1658.0068" y2="175.4355" gradientTransform="matrix(1 0 0 1 0 -198)">
			<stop  offset="0" style="stop-color:#FFFFFF"/>
			<stop  offset="0.1203" style="stop-color:#FFFFFF;stop-opacity:0.8347"/>
			<stop  offset="0.2693" style="stop-color:#FFFFFF;stop-opacity:0.6576"/>
			<stop  offset="0.4195" style="stop-color:#FFFFFF;stop-opacity:0.5107"/>
			<stop  offset="0.5684" style="stop-color:#FFFFFF;stop-opacity:0.3965"/>
			<stop  offset="0.7156" style="stop-color:#FFFFFF;stop-opacity:0.3152"/>
			<stop  offset="0.8603" style="stop-color:#FFFFFF;stop-opacity:0.2664"/>
			<stop  offset="1" style="stop-color:#FFFFFF;stop-opacity:0.25"/>
		</linearGradient>
		<path id="p30_14_" opacity="0.3" fill="url(#p30_1_)" enable-background="new    " d="M822.687,248.068c0,0,1.1-0.1,3.201-0.2
			c98.627-3.501,1678.883-58.541,1678.883-58.541c13.904-0.1,25.007-11.503,24.907-25.307l-0.059-130.711
			c0-18.405-14.904-33.309-33.309-33.309H831.99c-18.405,0-33.309,14.904-33.309,33.309v240.666
			C798.28,260.271,808.983,248.768,822.687,248.068z"/>
		<g>
			<path fill="#00396E" d="M499.658,464.095c5.93,3.038,18.009,6.726,33.195,7.088c26.179,0.578,40.352-9.402,50.912-32.833
				l140.077-311.831c-5.784-3.11-18.657-6.508-28.999-6.726c-18.079-0.361-42.305,3.254-57.636,40.064l-45.342,106.884
				l-88.951-144.634c-5.787-1.735-19.816-4.266-30.012-4.266c-31.458,0-48.959,11.498-67.254,31.313l-86.419,94.373l69.497,109.271
				c12.946,19.96,29.796,30.157,57.275,30.157c18.079,0,33.049-4.267,39.992-7.521l-83.742-125.977l59.3-62.915l97.483,152.661
				L499.658,464.095z M315.829,346.146c0,22.996-9.04,36.23-53.949,36.23c-6.003,0-11.136-0.434-16.126-1.156V76.26
				c0-23.214,7.81-47.369,53.152-47.369c5.787,0,11.571,0.579,16.923,1.736V346.146z M223.119,300.08
				c0,42.957-28.059,74.198-85.117,80.345c-41.294,4.412-101.1-0.723-129.521-3.977c-0.94-4.629-1.735-10.415-1.735-14.97
				c0-37.389,20.176-46.067,39.195-46.067c19.814,0,50.912,3.472,73.981,3.472c25.598,0,33.265-8.606,33.265-16.85
				c0-10.775-10.196-15.187-30.012-19.019l-54.165-10.342C24.029,263.994,0.02,232.97,0.02,199.994
				c0-40.137,28.494-73.692,84.393-79.838c42.234-4.556,93.724,0.578,122,4.05c0.94,4.773,1.518,9.402,1.518,14.391
				c0,37.388-19.814,45.414-38.833,45.414c-14.608,0-37.244-2.676-63.205-2.676c-26.324,0-37.244,7.305-37.244,16.127
				c0,9.402,10.342,13.234,26.903,16.126l51.706,9.546C200.267,232.97,223.119,263.054,223.119,300.08"/>
			
				<linearGradient id="s30_1_" gradientUnits="userSpaceOnUse" x1="366.1569" y1="461.7566" x2="360.2937" y2="293.8684" gradientTransform="matrix(1 0 0 1 0 -198)">
				<stop  offset="0" style="stop-color:#FFFFFF"/>
				<stop  offset="0.1203" style="stop-color:#FFFFFF;stop-opacity:0.8347"/>
				<stop  offset="0.2693" style="stop-color:#FFFFFF;stop-opacity:0.6576"/>
				<stop  offset="0.4195" style="stop-color:#FFFFFF;stop-opacity:0.5107"/>
				<stop  offset="0.5684" style="stop-color:#FFFFFF;stop-opacity:0.3965"/>
				<stop  offset="0.7156" style="stop-color:#FFFFFF;stop-opacity:0.3152"/>
				<stop  offset="0.8603" style="stop-color:#FFFFFF;stop-opacity:0.2664"/>
				<stop  offset="1" style="stop-color:#FFFFFF;stop-opacity:0.25"/>
			</linearGradient>
			<path id="s30_10_" opacity="0.3" fill="url(#s30_1_)" enable-background="new    " d="M725.343,126.713l-51.409,114.49
				c-4.009,8.221-12.326,13.434-21.446,13.434l-46.9,1.604c-5.111,0.301-9.62,3.709-11.424,8.522v-0.1l44.294-104.464
				c15.433-36.893,39.684-40.603,57.723-40.202C706.303,120.297,716.123,122.603,725.343,126.713z M590.657,263.459l-86.785-141.157
				c-9.821-2.607-19.942-4.01-30.064-4.211c-31.567,0-49.104,11.529-67.343,31.379L319.78,244.11l6.915,10.928
				c4.51,6.817,12.326,10.727,20.544,10.326c4.109-0.1,45.998-1.604,49.405-1.704c8.518-0.702,16.736,3.008,21.846,9.825l0,0
				l-15.533-23.359l59.527-63.06l39.985,62.659l0,0c4.91,6.216,12.527,9.725,20.444,9.524c2.104-0.1,54.416-1.905,56.821-2.005
				C584.143,257.243,588.352,259.649,590.657,263.459L590.657,263.459z M299.537,28.865c-45.397,0-53.313,24.261-53.313,47.52
				v209.53c0-9.624,7.716-17.444,17.337-17.745l35.175-1.203c9.821,0,17.838-8.02,17.838-17.845l0,0V30.57
				C310.861,29.367,305.249,28.765,299.537,28.865z M147.514,223.558l-51.81-9.624c-16.535-2.907-26.957-6.717-26.957-16.141
				c0-8.822,11.023-16.141,37.38-16.141c25.955,0,48.704,2.707,63.335,2.707c19.04,0,38.883-8.121,38.883-45.615
				c0-4.812-0.501-9.725-1.503-14.437c-28.26-3.509-79.87-8.622-122.26-4.01C28.461,126.512,0,160.198,0,200.299
				c0.1,21.454,10.222,41.706,27.358,54.638c12.627,7.82,26.857,12.933,41.588,14.838c19.241,2.607,38.582,3.609,57.923,3.008
				c6.113-0.201,51.81-1.805,61.832-2.206c23.149-0.802,35.776,18.948,34.473,38.798c0-0.301,0-0.501,0.1-0.802v-0.201
				c0.2-2.607,0.301-5.213,0.301-7.82C223.576,263.559,200.627,233.383,147.514,223.558z"/>
		</g>
	</g>
</g>
</svg>
