<?xml version="1.0" encoding="UTF-8" standalone="no"?><svg version="1.1" x="0" y="0" viewBox="0 0 1454.4622 250.00001" xml:space="preserve" xmlns:xlink="http://www.w3.org/1999/xlink" xmlns="http://www.w3.org/2000/svg" xmlns:svg="http://www.w3.org/2000/svg"><defs><linearGradient id="c" gradientUnits="userSpaceOnUse" x1="-1382.6" y1="144.5" x2="-1383.5" y2="138.60001" gradientTransform="translate(9523.9618 -756.19076) scale(6.4516)"><stop offset="0" stop-color="#eb1614"/><stop offset=".08" stop-color="#de1312"/><stop offset=".22039473" stop-color="#c81816"/><stop offset=".44078946" stop-color="#a51410"/><stop offset=".65237695" stop-color="#720e0a"/><stop offset="1" stop-color="#570f05"/></linearGradient><linearGradient id="i" x1="264.8829" y1="298.98349" x2="228.7016" y2="214.18379" gradientUnits="userSpaceOnUse" gradientTransform="matrix(.46233483 0 0 .45856335 428.15629 41.058025)"><stop offset="0" stop-color="#c16b15" stop-opacity=".2416268"/><stop offset=".36952716" stop-color="#cf8724" stop-opacity=".20334928"/><stop offset=".87565672" stop-color="#fee153" stop-opacity="0"/></linearGradient><linearGradient id="g" x1="-93.423042" y1="226.13449" x2="253.87993" y2="212.36667" gradientUnits="userSpaceOnUse" gradientTransform="matrix(.46228894 0 0 .45852019 428.15849 41.067963)"><stop stop-color="#b55727" stop-opacity=".16831683" offset=".25877193"/><stop offset=".43782887" stop-color="#bf6c2a" stop-opacity=".49000001"/><stop offset=".68597543" stop-color="#fee153" stop-opacity="0"/></linearGradient><linearGradient id="d"><stop offset="0" stop-color="#b11911"/><stop offset=".25" stop-color="#ad1210"/><stop offset=".5" stop-color="#a81811"/><stop offset="1" stop-color="#a11711"/></linearGradient><linearGradient id="h"><stop offset="0" stop-color="#000" stop-opacity=".17"/><stop offset="1" stop-color="#ff0404" stop-opacity="0"/></linearGradient><linearGradient id="b" x1="-93.423042" y1="226.13449" x2="253.87993" y2="212.36667" gradientUnits="userSpaceOnUse" gradientTransform="matrix(.46228894 0 0 .45852019 428.15849 41.067963)"><stop stop-color="#5d0c04" offset="0"/><stop offset=".99080002" stop-color="#400703"/></linearGradient><linearGradient id="A" gradientUnits="userSpaceOnUse" x1="902.81458" y1="-344.08273" x2="898.88348" y2="-216.23422" gradientTransform="matrix(1 0 0 -1 .3 -226.2845)"><stop offset="0" stop-color="#fff" stop-opacity=".87"/><stop offset=".25" stop-color="#fff" stop-opacity=".56999999"/><stop offset=".51999998" stop-color="#fff" stop-opacity=".40000001"/><stop offset=".75" stop-color="#fff" stop-opacity=".30000001"/><stop offset="1" stop-color="#fff" stop-opacity=".2"/></linearGradient><linearGradient id="a" gradientUnits="userSpaceOnUse" x1="903.33038" y1="-344.34064" x2="898.88348" y2="-216.23422" gradientTransform="matrix(1 0 0 -1 0 -226.2845)"><stop offset="0" stop-color="#fff" stop-opacity=".89999998"/><stop offset=".17958134" stop-color="#fff" stop-opacity=".56999999"/><stop offset=".45145735" stop-color="#fff" stop-opacity=".40000001"/><stop offset=".67812586" stop-color="#fff" stop-opacity=".30000001"/><stop offset="1" stop-color="#fff" stop-opacity=".23"/></linearGradient><linearGradient xlink:href="#a" id="j" gradientUnits="userSpaceOnUse" gradientTransform="matrix(1 0 0 -1 0 -226.2845)" x1="187.50011" y1="-358.58463" x2="183.95378" y2="-262.89908"/><linearGradient id="e" gradientUnits="userSpaceOnUse" x1="-1382.6" y1="144.5" x2="-1383.5" y2="138.60001" gradientTransform="translate(9523.9618 -756.19076) scale(6.4516)"><stop offset="0" stop-color="#eb1d1c"/><stop offset=".06414474" stop-color="#ea1312"/><stop offset=".22039473" stop-color="#c81816"/><stop offset=".44078946" stop-color="#a51410"/><stop offset=".65237695" stop-color="#720e0a"/><stop offset="1" stop-color="#570f05"/></linearGradient><linearGradient id="f" x1="74.140297" y1="279.983" x2="363.13199" y2="97.379501" gradientUnits="userSpaceOnUse" gradientTransform="matrix(.46233483 0 0 .45856335 428.15629 41.058025)"><stop stop-color="#422c0a" offset="0"/><stop offset=".264617" stop-color="#4a3703"/><stop offset=".65467697" stop-color="#483004"/><stop offset="1" stop-color="#4c3d01"/></linearGradient><linearGradient id="m" x1="71.693001" y1="170.99699" x2="362.74301" y2="270.63501" gradientUnits="userSpaceOnUse" gradientTransform="matrix(.46233483 0 0 .45856335 428.15629 41.058025)"><stop stop-color="#DD972C"/><stop offset=".264617" stop-color="#B55727"/><stop offset=".485254" stop-color="#F2AC2F"/><stop offset=".825857" stop-color="#E5B544"/><stop offset="1" stop-color="#FDDB50"/></linearGradient><linearGradient id="n" x1="41.358501" y1="183.55" x2="390.69299" y2="183.55" gradientUnits="userSpaceOnUse" gradientTransform="matrix(.46233483 0 0 .45856335 428.15629 41.058025)"><stop offset=".2066" stop-color="#EE9322"/><stop offset=".4014" stop-color="#F2AC2F"/><stop offset=".6663" stop-color="#F8CB45"/><stop offset=".8749" stop-color="#FCDE54"/><stop offset="1" stop-color="#FEE55A"/></linearGradient><linearGradient id="o" x1="264.8829" y1="298.98349" x2="228.7016" y2="214.18379" gradientUnits="userSpaceOnUse" gradientTransform="matrix(.46233483 0 0 .45856335 428.15629 41.058025)"><stop offset="0" stop-color="#c16b15"/><stop offset=".07778147" stop-color="#b46418" stop-opacity=".98823529"/><stop offset=".43824145" stop-color="#b7651e" stop-opacity=".98039216"/><stop offset=".4596" stop-color="#BD6829" stop-opacity=".9612"/><stop offset=".51792926" stop-color="#CB8331" stop-opacity=".8833"/><stop offset=".60259461" stop-color="#ebad51" stop-opacity=".5411765"/><stop offset=".82969987" stop-color="#FEE153" stop-opacity=".2"/></linearGradient><linearGradient id="p" x1="216.49216" y1="333.23459" x2="232.34148" y2="166.60931" gradientUnits="userSpaceOnUse" gradientTransform="matrix(.46233483 0 0 .45856335 428.25568 41.058025)"><stop stop-color="#b0691b" stop-opacity=".8455056" offset="0"/><stop offset=".144" stop-color="#BF6C2A" stop-opacity=".6419"/><stop offset=".5534" stop-color="#DCA43C" stop-opacity=".4766"/><stop offset=".8458" stop-color="#F2CE4C" stop-opacity=".3585"/><stop offset=".9908" stop-color="#FEE153" stop-opacity=".3"/></linearGradient><linearGradient xlink:href="#b" id="l" gradientUnits="userSpaceOnUse" gradientTransform="matrix(6.6482683 0 0 6.4029718 9798.0072 -749.52672)" x1="-1386.6847" y1="144.57985" x2="-1387.3915" y2="144.77843"/><linearGradient xlink:href="#c" id="y" gradientUnits="userSpaceOnUse" gradientTransform="matrix(6.4345879 0 0 6.439089 9503.2958 -753.98567)" x1="-1382.0177" y1="137.75922" x2="-1380.7423" y2="140.64291"/><linearGradient id="s" x1="-36.663486" y1="259.96478" x2="165.11729" y2="305.56708" gradientUnits="userSpaceOnUse" gradientTransform="matrix(.46228894 0 0 .45852019 428.15849 41.067963)"><stop stop-color="#b96803" stop-opacity=".26274511" offset="0"/><stop stop-color="#ba6803" stop-opacity=".26274511" offset=".07017545"/><stop stop-color="#bc6a05" stop-opacity=".38613862" offset=".36628506"/><stop offset=".51323885" stop-color="#db8c18" stop-opacity=".52145213"/><stop offset=".66971844" stop-color="#c67700" stop-opacity=".19801983"/><stop offset=".8682788" stop-color="#feda4b" stop-opacity="0"/></linearGradient><linearGradient xlink:href="#d" id="v" x1="590.81854" y1="179.71603" x2="625.67358" y2="213.58473" gradientUnits="userSpaceOnUse" gradientTransform="matrix(1.0049377 0 0 1.0056407 -1.2626715 -.23109219)"/><linearGradient xlink:href="#e" id="w" gradientUnits="userSpaceOnUse" gradientTransform="translate(9457.8586 -749.52676) scale(6.4029721)" x1="-1382.0177" y1="137.75922" x2="-1380.7423" y2="140.64291"/><linearGradient xlink:href="#f" id="k" gradientUnits="userSpaceOnUse" gradientTransform="matrix(.45806018 0 0 .45856335 429.12544 41.058025)" x1="74.140297" y1="279.983" x2="363.13199" y2="97.379501"/><linearGradient xlink:href="#g" id="q" gradientUnits="userSpaceOnUse" gradientTransform="matrix(-.46228894 0 0 .45852019 627.9001 41.067963)" x1="284.27863" y1="-89.065147" x2="117.78522" y2="397.68695"/><filter id="x" x="-.05776698" y="-.06142684" width="1.1315804" height="1.1644448" color-interpolation-filters="sRGB"><feFlood result="flood" flood-opacity=".929412" flood-color="rgb(151,0,0)"/><feGaussianBlur result="blur" in="SourceGraphic" stdDeviation="1.2"/><feOffset result="offset" in="blur" dx=".8" dy="1.95"/><feComposite result="comp1" operator="in" in="flood" in2="offset"/><feComposite result="comp2" operator="over" in="SourceGraphic" in2="comp1"/></filter><filter id="u" x="-.11810812" y="-.10193861" width="1.2362162" height="1.2038772" color-interpolation-filters="sRGB"><feGaussianBlur stdDeviation=".22798953"/></filter><filter id="r" x="-.07567122" y="-.04642648" width="1.1513424" height="1.092853" color-interpolation-filters="sRGB"><feGaussianBlur stdDeviation="2.0264908"/></filter><radialGradient xlink:href="#h" id="z" cx="649.82764" cy="60.859318" fx="649.82764" fy="60.859318" r="55.28017" gradientTransform="matrix(.22438882 1.1637073 -1.5250156 .29446871 610.13601 -724.23486)" gradientUnits="userSpaceOnUse"/><radialGradient xlink:href="#i" id="t" cx="493.29813" cy="178.54228" fx="493.29813" fy="178.54228" r="80.75568" gradientTransform="matrix(-.17293077 1.1037605 -1.5012004 -.23486778 809.36319 -389.7282)" gradientUnits="userSpaceOnUse"/></defs><path d="M1437.7928 250H416.26948c-9.20793 0-16.66948-7.46155-16.66948-16.66929V16.663618C399.6 7.4617388 407.06174 0 416.26948 0H1437.7928c9.2021 0 16.6693 7.4617388 16.6693 16.663618V233.33071c0 9.20793-7.4674 16.66929-16.6693 16.66929" fill="#ebebeb"/><path d="M249.8 232c3 1.5 9 3.4 16.6 3.5 13.1.3 20.2-4.7 25.5-16.4l70-155.9c-2.9-1.5-9.3-3.3-14.5-3.4-9-.2-21.1 1.6-28.8 20l-22.7 53.4L251.4 61c-2.9-.9-9.9-2.1-15-2.1-15.7 0-24.5 5.8-33.6 15.6l-43.2 47.2 34.8 54.7c6.4 10 14.9 15 28.6 15 9 0 16.5-2.1 20-3.7l-41.9-63 29.7-31.4 48.7 76.3Zm-91.9-59c0 11.5-4.5 18.1-27 18.1-3 0-5.6-.2-8.1-.6V38.1c0-11.6 3.9-23.7 26.6-23.7 2.9 0 5.8.3 8.5.9Zm-46.4-23c0 21.5-14 37.1-42.6 40.2-20.7 2.2-50.5-.4-64.8-2-.5-2.3-.9-5.2-.9-7.5 0-18.7 10.1-23 19.6-23 9.9 0 25.5 1.7 37 1.7 12.8 0 16.6-4.3 16.6-8.4 0-5.4-5.1-7.6-15-9.5l-27.1-5.2C12 132 0 116.5 0 100c0-20 14.2-36.8 42.2-39.9 21.1-2.3 46.9.3 61 2 .5 2.4.8 4.7.8 7.2C103.9 88 94 92 84.5 92c-7.3 0-18.6-1.3-31.6-1.3-13.2 0-18.6 3.6-18.6 8.1 0 4.7 5.2 6.6 13.4 8.1l25.8 4.8c26.6 4.8 38 19.8 38 38.3" fill="#ebebeb"/><path d="m361.9 63.3-25.6 57.1c-.8 1.5-3.6 6.4-10.7 6.7-1.7.1-23.4.8-23.4.8-4.3.1-5.7 4.2-5.7 4.3l22.1-52.1c7.7-18.4 19.8-20.2 28.8-20 5.2-.1 11.6 1.6 14.5 3.2Zm-67.2 68.2-43.3-70.4c-2.9-.9-9.9-2.1-15-2.1-15.8 0-24.5 5.8-33.6 15.6l-43.3 47.2 3.5 5.4c1.5 2 4.4 5.4 10.2 5.2 2.1-.1 22.9-.8 24.6-.9 5.4-.2 8.8 2.1 10.9 4.9l-7.7-11.6 29.7-31.5 19.9 31.3c3.6 4.7 9 4.8 10.2 4.8 1 0 27.2-1 28.3-1 1.9-.2 4 .8 5.6 3.1ZM149.4 14.4c-22.7 0-26.6 12.1-26.6 23.7v104.5c0-4.2 3.2-8.6 8.6-8.8 3.8-.1 14.4-.5 17.5-.6 3.5-.1 8.8-2.5 8.9-8.9v-109c-2.6-.6-5.5-.9-8.4-.9Zm-75.8 97.2-25.8-4.8c-8.3-1.4-13.5-3.4-13.5-8.1 0-4.4 5.5-8.1 18.6-8.1 13 0 24.3 1.3 31.6 1.3 9.5 0 19.4-4 19.4-22.7 0-2.5-.3-4.8-.8-7.2-14.1-1.7-39.9-4.3-61-2C14.2 63.2 0 79.9 0 100c0 10.3 4.7 20.2 13.7 27.3 6.8 4.5 13.8 6.2 20.8 7.4 5.7 1 19 1.9 28.9 1.5 3.1-.1 25.9-.9 30.8-1.1 11.6-.4 17.8 9.5 17.2 19.4v-.5c.1-1.3.2-2.6.2-3.9-.1-18.6-11.5-33.6-38-38.5Z" fill="url(#j)"/><path d="M709.754 214.977V35.100002h9.84585V214.977Z" fill="#ff1e1e"/><path d="M758.921 68.399936h24.23261v43.596794h45.00346V68.399936h24.23261V180.86799h-24.23261v-45.78103h-45.00346v45.78103H758.921Z" fill="#000"/><path d="M902.12339 68.399936V180.86799h-24.19772V68.399936Z" fill="#000"/><path d="M938.50607 144.2177c3.85189 9.68715 11.95189 16.1123 21.72976 16.1123 7.90129 0 14.40896-4.0528 14.40896-11.26873 0-5.43669-3.65436-9.1681-11.75319-12.03471l-13.53096-4.84361c-16.39519-5.93088-26.75474-15.93943-26.75474-32.15058 0-20.36281 15.60506-33.70737 36.74103-33.70737 16.69148 0 31.30887 9.165742 38.22251 24.190725l-20.04952 11.592455c-3.35806-7.51248-9.41434-13.493535-17.67916-13.493535-7.40747 0-12.54332 3.996519-12.54332 9.934998 0 5.344627 4.03852 8.579267 10.95216 11.152607l14.6174 5.64155c17.97548 6.73028 26.65276 16.95619 26.65276 32.09931 0 22.4558-18.74055 35.53189-39.58024 35.53189-18.66681 0-35.03676-9.69798-42.14794-27.61238Z" fill="#000"/><path d="M1009.017 68.399931h83.483v22.480472h-29.6255v89.987277h-24.1977V90.880403h-29.6598Z" fill="#000"/><path d="M1252.5711 180.86829h-23.9064V68.399933h37.4403c24.2028 0 41.0953 13.054051 41.0953 35.997547 0 16.11975-9.7011 27.2948-23.1363 32.43731l31.0192 44.00798h-28.4506l-27.6403-41.14002h-6.4212Zm0-61.0433h13.6327c9.681 0 16.7681-5.63699 16.7681-14.93305 0-9.493858-7.1858-14.834153-16.7681-14.834153h-13.6327Z" fill="#000"/><path d="M1373.8382 180.86799h-24.1978v-48.83688l-40.1487-63.631179h27.6373l24.8572 41.131799 24.9063-41.131799h27.1435l-40.1978 63.631179Z" fill="#000"/><path d="M1153.9028 182.9163c-32.5929 0-58.7659-25.88722-58.7659-58.29565 0-32.408424 26.173-58.295649 58.7659-58.295649 32.5928 0 58.7659 25.887225 58.7659 58.295649 0 32.40843-26.1731 58.29565-58.7659 58.29565Zm0-93.17423c-19.0619 0-34.0743 15.41375-34.0743 34.87858s14.9136 34.87858 34.0743 34.87858c19.0619 0 34.0743-15.41375 34.0743-34.87858s-14.9137-34.87858-34.0743-34.87858Z" fill="#000"/><g transform="matrix(1.0049377 0 0 1.0056407 -1.2626715 -.23109216)" stroke-width=".994739"><path d="M468.99989 199.1462V46.361605l21.30785-.106083.06094 62.612978h76.38558l.0609-62.756457 19.52932.445737v152.91631l-19.56962-.29614.02015-68.83189h-76.66454l-.11681 68.94264Zm9.69912-5.26001h2.48819v-73.17792h93.61056v73.21322h2.98882V54.006433h-2.98882V117.4458H481.1872V54.011524h-2.48819Z" fill="url(#k)" opacity=".690998"/><path d="M446.6151 209.23154v-2.98569l1.29518-.01056c.03071 0 .09729.00505.18429.00505 2.61594 0 5.14995-1.04507 7.34609-2.38087 2.83605-1.72877 4.35645-4.75208 4.84277-7.94918.11263-.73921.18942-1.49401.1638-2.24375 0 0 .00006-2.49827-.00507-2.49827V56.275404c-.06145-1.641839-.61945-7.418251-5.12434-10.003404-3.38897-2.141504-6.38368-2.209348-7.21811-2.209348-.08706 0-.14845-.000005-.18433.005096l-1.39755-.025496v-2.770566h65.76538v2.975501l-.896.020393c-.03606 0-.09201-.005096-.1794-.005096-.83451 0-3.82396.168265-7.2383 2.319992-4.4999 2.585105-5.0168 8.081721-5.07322 9.703155l-.02588 2.294467-.00508.642493v1.422555l.06149 40.268224h58.19177l.06148-40.263133s0-2.065003-.00508-2.065003v-2.274107c-.0564-1.646976-.59365-7.13841-5.12452-9.738878-3.38891-2.141504-6.37837-2.309765-7.21796-2.309765-.08692 0-.14842-.000005-.17892.005096l-.89602-.020393.00509-3.026493h65.77545l-.00509 3.02139-1.41289.025496c-.03097 0-.09247-.005096-.18447-.005096-.83451 0-3.82398.168265-7.23831 2.319992-4.48466 2.574926-4.83759 8.051089-4.89908 9.667433V191.16827h-.01017v2.51891c-.01017.27009-.38959 7.18934 4.92959 10.24338 3.38891 2.1415 6.37837 2.30978 7.21289 2.30978.092 0 .1535 0 .18446-.00505l1.41799.0156v2.68611h-65.78562l.02542-2.74757h.88583c.02543 0 .07675.00506.1535.00506.83451 0 3.80364-.1018 7.24894-2.27402 4.17211-2.39141 4.94004-7.27602 5.0783-9.26435v-.04632l.02034-57.303h-58.47333l-.11791 56.43632.05641 1.59075c.13316 1.98879 1.14658 6.54186 5.3446 8.94886 3.3889 2.14149 6.22487 1.95256 7.05938 1.95256.092 0 .15349 0 .18401-.00503l.79383.01008v2.98571H446.6151Zm31.57737-15.34535h2.51141v-73.17792h94.48415v73.21322h3.01673V54.006433h-3.01673V117.4458h-94.48415V54.011524h-2.51141Z" fill="url(#f)" opacity=".5"/><path d="M446.918 41.271484v2.470821l.99802.02539c.03588-.005101.09653-.005859.18359-.005859.83443 0 3.82978-.031338 7.21875 2.110164 5.01979 2.880633 5.0616 8.261724 5.12305 9.903562V191.16797c.00513 0 .00586 2.49805.00586 2.49805.02562.74973-.05144 1.50493-.16407 2.24414-.48632 3.19709-2.00575 6.22045-4.84179 7.94922-2.19614 1.33579-4.73172 2.38085-7.34766 2.38085-.087 0-.15288-.00585-.18359-.00585l-1.29493.01171v2.98047h65.39063v-2.98633l-.79297-.00976c-.03052.00503-.09159.00391-.18359.00391-.83451 0-3.67165.19031-7.06055-1.95118-4.19802-2.40699-5.21059-6.96043-5.34375-8.94922l-.05664-1.59179.11719-61.43555h20.10351v-6.79883h-33.08594v73.37891h-12.50976V49.011719h12.50976v63.632811h33.08594v-6.73047h-24.86133l-.0625-45.269529v-1.421875l.00586-.642578.02539-2.294922c.05642-1.621432 2.57237-9.118022 7.07227-11.703125 3.41434-2.151725 9.40377-1.320312 10.23828-1.320312.08739 0 .29391.231042.32996.231042l.74621-2.221277Z" fill="#f3c843"/><path d="M578.95507 167.57162v26.35025l-4.73419 3.30021.41762-25.11706Z" fill="url(#l)"/><path d="M446.6151 209.23154v-2.98569l1.29518-.01056c.03071 0 .09729.00505.18429.00505 2.61594 0 5.14995-1.04507 7.34609-2.38087 2.83605-1.72877 4.35645-4.75208 4.84277-7.94918.11263-.73921.18942-1.49401.1638-2.24375 0 0 .00006-2.49827-.00507-2.49827V56.275404c-.06145-1.641839-.61945-7.118002-5.12434-9.703155-3.38897-2.141504-6.38368-2.309765-7.21811-2.309765-.08706 0-.14845-.000005-.18433.005096l-1.29738-.025496v-2.970398h65.66521v2.975501l-.896.020393c-.03606 0-.09201-.005096-.1794-.005096-.83451 0-3.82396.168265-7.2383 2.319992-4.4999 2.585105-5.0168 8.081721-5.07322 9.703155l-.02588 2.294467-.00508.642493v1.422555l.06149 40.268224h58.19177l.06148-40.263133s0-2.065003-.00508-2.065003v-2.274107c-.0564-1.646976-.59365-7.13841-5.12452-9.738878-3.38891-2.141504-6.37837-2.309765-7.21796-2.309765-.08692 0-.14842-.000005-.17892.005096l-.89602-.020393.00509-3.026493h65.77545l-.00509 3.02139-1.41289.025496c-.03097 0-.09247-.005096-.18447-.005096-.83451 0-3.82398.168265-7.23831 2.319992-4.48466 2.574926-4.83759 8.051089-4.89908 9.667433V191.16827h-.01017v2.51891c-.01017.27009-.38959 7.18934 4.92959 10.24338 3.38891 2.1415 6.37837 2.30978 7.21289 2.30978.092 0 .1535 0 .18446-.00505l1.41799.0156v2.68611h-65.78562l.02542-2.74757h.88583c.02543 0 .07675.00506.1535.00506.83451 0 3.80364-.1018 7.24894-2.27402 4.17211-2.39141 4.94004-7.27602 5.0783-9.26435v-.04632l.02034-57.303h-58.47333l-.11791 56.43632.05641 1.59075c.13316 1.98879 1.14658 6.54186 5.3446 8.94886 3.3889 2.14149 6.22487 1.95256 7.05938 1.95256.092 0 .15349 0 .18401-.00503l.79383.01008v2.98571H446.6151Zm31.57737-15.34535h2.51141v-73.17792h94.48415v73.21322h3.01673V54.006433h-3.01673V117.4458h-94.48415V54.011524h-2.51141Z" fill="url(#m)" opacity=".63017"/><path d="M447.37833 208.47996v-1.4839l1.29514-.01009c.03069 0 .09727.00504.18428.00504.83442 0 3.8292-.16829 7.23859-2.31987 5.29841-3.03891 5.11412-9.95816 5.10899-10.25394v-2.49824h-.00513V55.524003c-.0614-1.64184-.61944-7.118003-5.12434-9.703109-3.38891-2.141551-6.38369-2.309811-7.21811-2.309811-.08701 0-.14846-.000005-.18428.005094l-1.39755-.025496v-1.468466h64.25645v1.473571l-.89601.020391c-.03559 0-.092-.005094-.17891-.005094-.83451 0-3.82399.168265-7.23878 2.319992-4.49945 2.585104-5.02189 8.076629-5.07829 9.703154l-.02033 2.294468-.0051.642492v1.422555l.06149 41.769846h59.70037l.0615-41.764755v-2.065002h-.00508v-2.274109c-.05642-1.646929-.59411-7.138408-5.12453-9.73883-3.38891-2.141551-6.37838-2.309811-7.21797-2.309811-.08692 0-.14841-.000005-.17939.005094l-.89554-.020391-.00555-1.514364h64.26686l.00509 1.509259-1.4129.025496c-.03052 0-.09201-.005094-.18402-.005094-.83451 0-3.82396.168265-7.23878 2.319992-4.48417 2.574925-4.8371 8.051088-4.8986 9.667432V191.91896h-.01017v2.51886c-.01017.27011-.38957 7.18938 4.92911 10.24341 3.38893 2.14149 6.37885 2.30978 7.21336 2.30978.092 0 .15349 0 .18402-.00504l1.41798.01513v1.48391h-64.27702v-1.47841h.88581c.02544 0 .07677.00504.15351.00504.83451 0 3.82906-.16829 7.26929-2.3405 4.1721-2.39141 4.94004-7.27603 5.07828-9.26482v-.04587l.02034-58.80523h-59.9713l.02034 58.82588v.02018c.13316 1.98878.90109 6.87341 5.09863 9.27995 3.38892 2.14149 6.37838 2.30978 7.21288 2.30978.09247 0 .1535 0 .18448-.00504l.89092.01009v1.4839Zm30.06886-13.84356h4.02001v-73.17793h92.97555v73.21369h4.52533V53.255032h-4.52533v63.439178H481.4672V53.260122h-4.02001Z" fill="url(#n)"/><path d="M447.37833 208.48043v-1.48392l1.29514-.01008c.03069 0 .09727.00503.18428.00503.83442 0 3.8292-.16828 7.23859-2.31987 5.29841-3.03889 5.11412-9.95815 5.10899-10.25394v-2.49869h-.00513V55.524369c-.0614-1.641838-.61939-7.118003-5.12434-9.703154-3.38891-2.141523-6.38369-2.309784-7.21811-2.309784-.08701 0-.14846-.000005-.18428.005094l-1.39755-.025495v-1.468467h64.25645v1.473571l-.89601.020391c-.03559 0-.092-.005094-.17891-.005094-.83451 0-3.82399.168266-7.23878 2.32001-4.49945 2.585105-5.0168 8.081674-5.0732 9.703109l-.02542 2.294514-.0051.642447v1.4226l.06149 41.769949h59.70037l.0615-41.764858v-2.065049h-.00508v-2.274107c-.05642-1.646931-.59411-7.13841-5.12453-9.738831-3.38891-2.141523-6.37838-2.309784-7.21797-2.309784-.08692 0-.14841-.000005-.17939.005094l-.89554-.020391.00507-1.524563h64.26641l-.00508 1.519459-1.4129.025495c-.03052 0-.09201-.005094-.18402-.005094-.83451 0-3.82396.168266-7.23878 2.32001-4.48417 2.574925-4.8371 8.05109-4.8986 9.667432V191.91896h-.01017v2.51886c-.01017.27057-.38957 7.18938 4.92911 10.24386 3.38939 2.1415 6.37885 2.30978 7.21336 2.30978.092 0 .15349 0 .18402-.00503l1.41798.01512v1.48392h-64.27702l.02588-1.5449h.88537c.02589 0 .07675.00503.15395.00503.83405 0 3.80318-.10225 7.24849-2.27401 4.17212-2.3914 4.94004-7.27601 5.0783-9.26482v-.04585l.0208-58.80524h-59.97686l.02034 58.82542v.02064c.13316 1.98832.90109 6.87341 5.09863 9.27994 3.38892 2.1415 6.37838 2.30978 7.21288 2.30978.09247 0 .1535 0 .18448-.00503l.89092.01008v1.48392Zm30.06886-13.84357h4.02001v-73.17793h92.97555v73.21368h4.52533V53.255353h-4.52533v63.439307H481.4672V53.260489h-4.02001Z" fill="url(#o)"/><path d="m544.62478 41.970703-.00586 1.525391.89649.019531c.03051-.005099.09229-.003906.17968-.003906.83913 0 3.82984.167073 7.21875 2.308593 4.53041 2.600419 5.06664 8.093306 5.12305 9.740235v2.273437c.00508 0 .00586 2.064454.00586 2.064454l-.06055 41.765622h-59.70117l-.0625-41.769529v-1.423828l.00586-.642578.02539-2.292969c.05641-1.621433.57431-7.118022 5.07422-9.703125 3.41434-2.151742 6.40376-2.320312 7.23828-2.320312.08692 0 .14215.003906.17773.003906l.89649-.019531v-1.472656h-64.25586v1.466796l1.39648.025391c.03583-.005099.09854-.003906.18555-.003906.83447 0 3.82784.167073 7.2168 2.308593 4.50489 2.585149 5.06357 8.061289 5.125 9.703126V191.91992c.00509 0 .00586 2.49805.00586 2.49805.02561.74931-.05144 1.50299-.16406 2.24219-.48634 3.1971-2.00771 6.22089-4.84376 7.94922-2.19613 1.33578-4.72977 2.38281-7.3457 2.38281-.08704 0-.15289-.00586-.18359-.00586l-1.29492.00976v1.47852h63.88281v-1.48242l-.79492-.01172c-.03097.00505-.09159.00586-.1836.00586-.83451 0-3.66968.18837-7.05859-1.95313-4.19755-2.40653-5.21254-6.95894-5.3457-8.94726l-.05664-1.5918.11914-57.9375h59.98047l-.00196-1.11763 16.52149-12.11312v-1.86611h-92.97461v73.17694h-4.0193V53.259766h4.0193v63.435114h92.97461V53.255859h4.52734v68.110601l16.08479-3.05163V55.498047c.0615-1.616341.41298-7.091093 4.89763-9.666016 3.41434-2.151742 6.40377-2.320312 7.23828-2.320312.09202 0 .15504.003906.18555.003906l1.41211-.025391.00586-1.519531Z" fill="url(#p)"/><path d="m544.50959 41.98062.00583 1.514893.89597.021364c.03098-.005099.09189-.005827.17881-.005827.83957 0 3.82935.167693 7.21826 2.30924 4.53042 2.600416 5.06866 8.093056 5.12508 9.739981v2.274281h.00389v2.064527l-.06025 41.764421h.00563l2.90485 8.65165h13.65421V53.254916h4.52648V141.7091l16.0691-6.78789.00971-79.423088c.0615-1.61634.41547-7.09126 4.89964-9.666179 3.41482-2.151723 6.40319-2.320893 7.2377-2.320893.09201 0 .15411.005827.18463.005827l1.41295-.025249-.00583-1.511008Zm30.28817 86.91396-16.88559 7.66-.01944 10.18474 16.54914-3.98534v-21.29589Z" opacity=".588808" fill="url(#q)" filter="url(#r)"/><path d="M447.27681 42.021406v1.470222h.00389v.007769l1.39934.025248c.03582-.005099.0957-.003884.18269-.003884.83434 0 3.82969.167923 7.21826 2.30924 1.68918.969337 2.82251 2.345744 3.58387 3.773636.25155.472858.46298.950477.63942 1.421668.00119.00316.0027.006552.00389.009711.70722 1.893575.86143 3.668908.89208 4.488354l.23957 122.90863 7.76632-8.28275 8.242-7.55178V53.270453h4.01728v63.425437h45.7215V101.6635h-29.0091l-.06219-41.760537v-1.421668l.00583-.642858.02526-2.295645c.0564-1.621277.57318-7.116286 5.07261-9.701138 3.41402-2.151536 6.40327-2.320893 7.2377-2.320893.08692 0 .1432.003884.17881.003884l.89596-.019422v-1.483817Zm34.19055 79.436684v.00389h-.00194v46.95778l.00194-.00194v1.05645l16.4889.40465-.01555-33.3224h29.24621v-15.09843Z" fill="url(#s)"/><path d="M447.37833 208.48043v-1.48392l1.29514-.01008c.03069 0 .09727.00503.18428.00503.83442 0 3.8292-.16828 7.23859-2.31987 5.29841-3.03889 5.11412-9.95815 5.10899-10.25394v-2.49869h-.00513V55.524369c-.0614-1.641838-.61939-7.118003-5.12434-9.703154-3.38891-2.141523-6.38369-2.309784-7.21811-2.309784-.08701 0-.14846-.000005-.18428.005094l-1.39755-.025495v-1.468467h64.25645v1.473571l-.89601.020391c-.03559 0-.092-.005094-.17891-.005094-.83451 0-3.82399.168266-7.23878 2.32001-4.49945 2.585105-5.0168 8.081674-5.0732 9.703109l-.02542 2.294514-.0051.642447v1.4226l.06149 41.769949h59.70037l.0615-41.764858v-2.065049h-.00508v-2.274107c-.05642-1.646931-.59411-7.13841-5.12453-9.738831-3.38891-2.141523-6.37838-2.309784-7.21797-2.309784-.08692 0-.14841-.000005-.17939.005094l-.89554-.020391.00507-1.524563h64.26641l-.00508 1.519459-1.4129.025495c-.03052 0-.09201-.005094-.18402-.005094-.83451 0-3.82396.168266-7.23878 2.32001-4.48417 2.574925-4.8371 8.05109-4.8986 9.667432V191.91896h-.01017v2.51886c-.01017.27057-.38957 7.18938 4.92911 10.24386 3.38939 2.1415 6.37885 2.30978 7.21336 2.30978.092 0 .15349 0 .18402-.00503l1.41798.01512v1.48392h-64.27702l.02588-1.5449h.88537c.02589 0 .07675.00503.15395.00503.83405 0 3.80318-.10225 7.24849-2.27401 4.17212-2.3914 4.94004-7.27601 5.0783-9.26482v-.04585l.0208-58.80524h-59.97686l.02034 58.82542v.02064c.13316 1.98832.90109 6.87341 5.09863 9.27994 3.38892 2.1415 6.37838 2.30978 7.21288 2.30978.09247 0 .1535 0 .18448-.00503l.89092.01008v1.48392Zm30.06886-13.84357h4.02001v-73.17793h92.97555v73.21368h4.52533V53.255353h-4.52533v63.439307H481.4672V53.260489h-4.02001Z" fill="url(#t)"/></g><path d="m564.17002 181.06148-2.14574 2.19425-.16359 3.17344s1.84853-2.48638 4.63283-5.35392Z" transform="matrix(2.9882838 0 0 2.9903738 -1120.2701 -359.54549)" fill="#510a0a" filter="url(#u)"/><path d="M663.56808 162.73317c-10.87125 17.16665-12.72303 17.7655-31.71759 17.7655H568.916c-7.88696 8.14205-15.89963 16.16077-24.036 24.05324v5.48934h113.79789c3.19156-12.07654 6.48276-29.04167 10.57194-44.91082Z" fill="url(#v)"/><path d="M544.88 204.55191v5.48934h1.12683l-.00246-5.18895Z" fill="#c83a39"/><path d="M663.02308 163.59749c-8.64697 13.78587-12.63907 16.84452-22.99349 17.4866-2.41604.14981-37.43547.11228-40.71127.11228l33.44923.10074c17.13169 0 20.53288-.70272 30.93278-17.18532Z" fill="#f58677"/><path d="M595.59766 29.910156C583.72847 31.997182 572.76786 37.717616 564.5 46.724c-7.04648 7.939694-13.29927 16.37415-18.75781 25.504797l5.95508 4.566406C560.13319 64.488678 571.84418 52.482 590.10547 52.482c1.9232 0 3.75296.23306 5.49219.490656Z" fill="url(#w)" filter="url(#x)" transform="matrix(1.0049377 0 0 1.0056407 -1.2626715 -.23109216)"/><path d="M579.37695 54.5625c-.89505.305169-1.76873.642275-2.625 1.007812v4.730469h2.625Z" fill="#e8e2df"/><path d="M558.66406 69.71875c-1.98115 2.353158-3.81329 4.808406-5.50586 7.279297l-5.98437-4.59375c.65337-1.093685 1.32007-2.175838 1.99609-3.25l-16.97461-.982422.52735 15.457031 25.91015.039063Z" fill="#ebebeb"/><path d="M606.81687 28.993375c-3.22335.003396-6.4117.303773-9.54101.854403v23.192586c16.92257 2.508149 25.19999 16.755149 25.19999 34.938157 0 19.684949-9.20739 39.447109-24.99768 60.254919l.00288 17.21126 20.70614-19.97771c27.8264-26.34875 40.09348-43.91568 40.09348-67.370067 0-30.939853-23.33818-49.103548-51.4638-49.103548Z" fill="url(#y)"/><path d="M597.27645 148.50045c15.91394-20.9055 25.19882-40.75313 25.19882-60.522038 0-20.061022-10.07336-35.33135-30.71878-35.33135-18.35148 0-30.12036 12.276145-38.59795 24.6521l-5.98418-4.591081c5.4855-9.182158 11.76889-17.765481 18.85017-25.749967 10.48852-11.433391 25.28252-17.948753 40.79214-17.965095 28.12565 0 51.46394 18.164706 51.46394 49.104591 0 23.45441-12.26756 41.02032-40.094 67.3691l-20.91016 20.17541Z" fill="url(#z)"/><path d="M544.88 209.44497v.59628h113.79789l.15663-.59628Z" fill="#560a03"/><path d="M568.478 181.1502c-7.88683 8.14191-15.36162 15.50906-23.49786 23.40142l1.02423.30068-.15871.15093c7.9171-7.67979 15.71751-15.27928 23.39854-23.19543Z" fill="#f58677"/><path d="M597.6697 30.150105c-8.54529 1.503616-16.52115 4.882947-23.46989 10.009035-2.75052 2.029066-5.42466 4.23087-7.78084 6.799313-2.3938 2.699132-4.68543 5.486991-6.88169 8.216211-4.20235 5.222135-8.05727 10.599169-11.6191 16.513103l.46336.320272c3.48811-5.751346 7.25184-10.989446 11.34635-16.079054 2.19871-2.733039 4.49328-5.524206 6.89129-8.228084 2.37196-2.585642 4.96406-4.800626 7.7355-6.838947 6.88197-5.061482 14.86682-8.813535 23.31502-10.3305 9.01365-1.537767 11.14204-.942595 11.14204-.942595s-4.08916-.683238-11.14204.561246Z" fill="#f7b1a3"/><path opacity=".5" d="M411.6 124s.5 0 1.6-.1c49.3-1.8 1028.8621-36.065434 1028.8621-36.065434 6.3-.2 12.4-4.9 12.4-12.7L1454.462 16.6c0-9.2-7.5-16.6-16.7-16.6H416.3c-9.2 0-16.7 7.4-16.7 16.6V137c0-1.3.4-11.9 12-13Z" fill="url(#A)"/><path d="M621.85217 76.255925c.16114.699793.3064 1.119908.43575 1.85943.11494.657151.22209 1.328564.31939 2.009269.34966 2.446055.57217 5.321941.57217 7.853897 0 3.843804-.45139 7.690553-1.13399 11.547463-1.03537 5.850106-2.83346 11.723606-5.32609 17.645606-1.46663 3.92454-3.17372 7.01883-5.10737 10.50884-3.28853 5.99183-7.23235 12.04704-11.76316 18.19086l.16432.59703c.43129-.61027.92576-1.31271 1.46298-2.08062 2.93322-4.19284 7.14078-10.33758 9.29608-14.09234 2.47434-4.32879 4.27649-9.55934 6.44132-12.93996 4.07709-9.75139 6.26795-19.37201 6.26795-28.97423 0-3.836834-.36941-7.497675-1.11109-10.90971-.1506-.69274-.31652-1.375226-.49782-2.046845Z" fill="#f8b9ac"/><path d="M658.21211 210.04125h.46578c3.19156-12.07654 6.48276-29.04167 10.57194-44.91082l-.49728-.20981Z" fill="#560a03"/></svg>