<?xml version="1.0" encoding="UTF-8" standalone="no"?><svg version="1.1" x="0" y="0" viewBox="0 0 1721.402 500.00001" xml:space="preserve" width="1721.402" height="500" xmlns:xlink="http://www.w3.org/1999/xlink" xmlns="http://www.w3.org/2000/svg" xmlns:svg="http://www.w3.org/2000/svg"><defs><linearGradient id="c" gradientUnits="userSpaceOnUse" x1="1306.9092" y1="922.03278" x2="1298.8555" y2="705.10669" gradientTransform="translate(0 -677.9978)"><stop offset="0" stop-color="#fff" stop-opacity=".97"/><stop offset=".061588" stop-color="#fff" stop-opacity=".99798"/><stop offset=".18" stop-color="#fff" stop-opacity=".866667"/><stop offset=".711888" stop-color="#fff" stop-opacity=".29"/><stop offset=".863107" stop-color="#fff" stop-opacity=".29"/><stop offset="1" stop-color="#fff" stop-opacity=".23"/></linearGradient><linearGradient id="b" gradientUnits="userSpaceOnUse" x1="1306.9092" y1="922.03278" x2="1298.8555" y2="705.10669" gradientTransform="translate(0 -677.9978)"><stop offset="0" stop-color="#fff" stop-opacity=".97"/><stop offset=".711888" stop-color="#fff" stop-opacity=".29"/><stop offset=".863107" stop-color="#fff" stop-opacity=".29"/><stop offset="1" stop-color="#fff" stop-opacity=".23"/></linearGradient><linearGradient id="a"><stop offset="0" stop-color="#4f00fa"/><stop offset="1" stop-color="#5800fb"/></linearGradient><linearGradient id="e" gradientUnits="userSpaceOnUse" x1="993.95459" y1="1121.1553" x2="1694.7522" y2="708.35229" gradientTransform="translate(0 -677.9978)"><stop offset="0" stop-color="#7100fc"/><stop offset="1" stop-color="#4f00fa"/></linearGradient><linearGradient xlink:href="#a" id="d" x1="562.52075" y1="27.28974" x2="562.52075" y2="471.41153" gradientUnits="userSpaceOnUse" gradientTransform="matrix(1.0003453 0 0 .99830793 0 .048645)"/><linearGradient xlink:href="#b" id="f" gradientUnits="userSpaceOnUse" gradientTransform="translate(0 -677.9978)" x1="1306.9092" y1="922.03278" x2="1295.345" y2="699.841"/><linearGradient xlink:href="#c" id="g" gradientUnits="userSpaceOnUse" gradientTransform="translate(-898.11917 -646.55235)" x1="1306.9092" y1="922.03278" x2="1295.345" y2="699.841"/></defs><path d="M298.86523 28.75c-45.51963-.159663-53.20117 24.303341-53.20117 47.505859V381.08789c5.00004.80008 10.30073 1.20117 16.30078 1.20117 45.00027 0 53.79183-13.20258 53.79883-36.20508l.10156-315.533199c-5.19999-1.200132-11.20002-1.78044-17-1.800781Zm174 88.91016c-31.07636 0-49.18271 11.57092-67.38281 31.37304l-86.46094 94.4043 69.44336 109.04883c13.00009 20.00218 29.67013 30.40234 57.07032 30.40234 18.20012 0 33.65303-4.07033 40.45312-7.4707l-83.77539-126.05664 59.31641-62.82617c13.56458 21.47099 27.22316 42.82071 40.89648 64.15039l56.39453 88.4375-59.35351 124.97461c6.00003 3.0003 18.13856 6.48393 33.13867 7.08398 26.20016.60009 40.46047-9.28495 51.06055-32.6875l85.78125-191.11328c18.10444-40.33543 35.57877-79.02806 54.3164-121.01172-5.80002-3.00036-18.68197-6.36948-29.08203-6.76953-18.00012-.40005-42.21515 3.46158-57.61523 40.26562L591.7168 266.43945l-88.85157-144.49023c-5.80005-1.60016-19.79993-4.28906-30-4.28906Zm-355.58593.60546c-11.21044.10627-22.346474.6448-32.894534 1.79493C27.91242 126.18076 0 160.17336 0 199.86914c0 33.00362 23.695779 63.70605 68.6875 72.70703l54.49023 10.40235c19.79637 3.80039 29.99415 8.30038 29.99415 19.10156 0 8.20089-8.55703 16.80078-33.19336 16.80078-22.995781 0-54.189975-3.59961-73.986332-3.59961-18.996505 0-39.19336 8.60179-39.19336 46.00586 0 4.80052.599793 10.3995 1.59961 15 28.594738 3.40038 88.283401 8.50204 129.675782 4.10156 56.98951-6.00065 85.08398-37.30392 85.08398-80.30859 0-37.00402-22.25763-67.07246-75.98437-77.00977l-51.091799-9.55078c-16.596947-2.60027-27.423828-6.64977-27.423828-16.05078 0-8.80094 10.927127-16.20117 37.322267-16.20117 25.79527 0 48.59213 2.65039 63.18945 2.65039 19.19648 0 38.79297-8.051 38.79297-45.45508 0-5.00053-.60174-9.60183-1.60156-14.40234-21.1461-2.55027-55.45072-6.11371-89.08203-5.79493Z" fill="url(#d)"/><path d="M1688.102 0H831.9c-18.3 0-33.3 15-33.3 33.3v433.4c0 18.3 15 33.3 33.3 33.3h856.202c18.3 0 33.3-15 33.3-33.3V33.3c0-18.3-15-33.3-33.3-33.3Z" fill="url(#e)"/><path opacity=".25" d="m822.3 248.1 3.3-.2 870.802-30.35961c12.5-.4 25-9.6 25-25.4V33.3c0-18.3-15-33.3-33.3-33.3H831.9c-18.3 0-33.3 15-33.3 33.3v241c0-2.7.4-23.6 23.7-26.2Z" fill="url(#f)"/><path fill="#ffffff" d="M1242.002 226.55673v143.57525c0 9.99181-5.4898 15.4975-22.1105 15.4975-7.0791 0-15.0816-1.01958-19.1855-2.03914V230.65458c0-19.53611-5.7436-34.66632-15.8954-44.07841-8.0739-7.48549-18.8369-11.28817-32.4276-11.28817-26.675 0-48.8359 18.85596-57.8644 37.82v157.12594c0 9.99181-5.5402 15.4975-22.1608 15.4975-7.0791 0-15.0817-1.01958-19.1855-2.03916v-153.0377c0-35.07325-17.2411-55.36658-48.323-55.36658-26.67509 0-48.83593 18.95596-57.86443 37.92v157.02594c0 9.99181-5.54021 15.4975-22.16084 15.4975-7.07916 0-15.08168-1.01958-19.18555-2.03916V143.57362c4.00127-1.01958 12.10639-2.03914 19.59594-2.03914 15.59466 0 21.40458 6.01545 21.40458 16.51704v16.01685c15.59467-20.49339 39.53773-35.58137 68.7777-35.58137 32.2154 0 57.4541 16.20756 69.9708 43.736 16.6207-25.08146 41.7568-43.736 77.563-43.736 25.8345-.05075 46.1811 9.92895 59.4691 26.15031 12.9894 15.85678 19.5824 37.67703 19.5824 61.91942"/><path fill="#ffffff" d="m1527.8503 262.34136 87.1037 115.76157c-5.5467 3.55917-18.1276 7.58907-28.7074 7.58907-9.5528 0-16.0328-1.38379-24.2521-12.50794l-58.8626-81.47637-60.9103 81.98484c-7.3143 10.44804-13.5047 11.97252-24.7918 11.99947-7.6011.01815-20.0775-2.60623-25.6242-7.58907l87.5944-114.2362-87.5754-114.75573c5.5467-3.45747 16.673-7.54769 27.7665-7.54769 10.5798 0 15.9851 1.19365 23.7168 11.30142l60.3012 81.22346 61.367-81.01484c2.3828-3.07571 4.1788-5.19655 6.3731-6.87355 4.928-3.76628 10.2814-4.6668 17.8861-4.6668 8.1146 0 19.1675 2.48687 25.7414 7.5714Z"/><path fill="#ffffff" d="M1327.0666 72.222647c-12.792-.09778-23.1862 10.291843-23.088 23.077663 0 11.94256 10.6487 23.04958 23.088 23.04958 12.8027-.04993 23.238-10.25608 23.5276-23.04958 0-13.360323-10.2157-23.077663-23.5276-23.077663Zm1.5231 66.990793c-16.6935 0-22.254 6.04381-22.254 15.59503l-.0039 228.73298c6.31 1.3294 12.7406 2.01099 19.1897 2.03561 16.6189 0 21.6835-5.46622 21.6835-15.57497v-228.8192c-6.119-1.3091-12.3575-1.96909-18.6153-1.96945Z"/><path opacity=".25" d="M298.86523 28.849609c-45.55996-.199136-53.20117 24.003708-53.20117 47.40625V285.27734c0-9.60104 7.59918-17.40156 17.19922-17.60156 7.60005-.20002 28.80116-.9992 35.20117-1.19922 7.00007-.20003 17.6008-5.00133 17.80078-17.80273V30.650391c-5.60001-1.200128-11.19998-1.800782-17-1.800782Zm174 88.810551c-31.10065.08603-49.1827 11.57092-67.38281 31.37304l-86.46094 94.4043 6.98633 10.92578c3.00002 4.00042 8.85695 10.61295 20.45703 10.21289 4.20002-.20001 45.84606-1.34686 49.2461-1.54687 10.80007-.40003 17.78435 4.01658 21.98437 9.61718l-15.48242-23.28515 59.31641-62.82617 39.92968 62.64453c7.20007 9.40104 18.00626 9.49609 20.40625 9.49609 2.00002 0 54.40157-1.79998 56.60157-2 3.60002-.20002 8.04018 1.89755 11.24023 6.49805l-86.8418-141.22461c-5.80002-1.80022-19.79993-4.28906-30-4.28906Zm-351.28711.19922c-12.59768.40005-25.195557.99987-37.193354 2C28.385062 126.21981 0 159.46362 0 199.66797c0 20.60222 9.122453 40.40587 27.119141 54.60742 13.597499 9.00096 27.870511 12.60169 41.667968 15.00195 11.397905 2.00021 37.992691 3.79815 57.789061 2.99805 6.19887-.20002 51.79166-1.79919 61.58985-2.19922 22.69289-.78274 35.13785 18.33575 34.54492 37.70703.19725-2.51949.44726-5.19621.44726-7.70312 0-37.00401-22.15548-67.25282-75.98437-77.20899l-51.091799-9.35156c-16.640722-2.65434-27.423828-6.64978-27.423828-16.05078 0-8.80094 11.127091-16.20117 37.322267-16.20117 25.99523 0 48.59213 2.65039 63.18945 2.65039 18.9965 0 38.79297-8.4514 38.79297-45.85547 0-4.80051-.60174-9.20144-1.60156-14.00195-20.19629-2.20023-52.58913-6.20118-84.78321-6.20117ZM222.71094 307.7832c-.00735.09386-.0143.19372-.02149.28711v1c.02601-.42926.00835-.85788.02149-1.28711Zm469.55664-188.21484c-17.80015.20004-40.4011 4.893-55.20117 40.29687l-44.79102 105.25391s3.19095-9.0687 11.79102-9.46875c0 0 43.60073-1.59961 46.80078-1.59961 14.46287-.41235 19.96444-10.08479 21.56445-13.28516l51.33203-114.39648c-5.80001-3.00037-18.8968-6.5754-29.29687-6.77539Z" fill="url(#g)"/></svg>